<?xml version="1.0" encoding="utf-8"?>
<!-- Generator: Adobe Illustrator 21.1.0, SVG Export Plug-In . SVG Version: 6.00 Build 0)  -->
<svg version="1.1" xmlns="http://www.w3.org/2000/svg" xmlns:xlink="http://www.w3.org/1999/xlink" x="0px" y="0px"
	 viewBox="0 0 60 60" style="enable-background:new 0 0 60 60;" xml:space="preserve">
<style type="text/css">
	.st0{display:none;}
	.st1{display:inline;}
	.st2{clip-path:url(#SVGID_2_);}
	.st3{fill:#F37321;}
	.st4{fill:none;stroke:#F37321;stroke-width:0.5;}
	.st5{clip-path:url(#SVGID_4_);}
	.st6{fill:#FFFFFF;}
	.st7{fill:none;}
</style>
<g id="Слой_1" class="st0">
	<g class="st1">
		<defs>
			<rect id="SVGID_1_" width="60" height="60"/>
		</defs>
		<clipPath id="SVGID_2_">
			<use xlink:href="#SVGID_1_"  style="overflow:visible;"/>
		</clipPath>
		<g class="st2">
			<path class="st3" d="M10,45c-0.3,0-0.5,0.1-0.7,0.3C9.1,45.5,9,45.7,9,46v6c0,0.3,0.1,0.5,0.3,0.7C9.5,52.9,9.7,53,10,53
				c0.3,0,0.5-0.1,0.7-0.3c0.2-0.2,0.3-0.4,0.3-0.7v-6c0-0.3-0.1-0.5-0.3-0.7C10.5,45.1,10.3,45,10,45z"/>
			<path class="st3" d="M14,45c-0.3,0-0.5,0.1-0.7,0.3S13,45.7,13,46v6c0,0.3,0.1,0.5,0.3,0.7c0.2,0.2,0.4,0.3,0.7,0.3
				c0.3,0,0.5-0.1,0.7-0.3c0.2-0.2,0.3-0.4,0.3-0.7v-6c0-0.3-0.1-0.5-0.3-0.7C14.5,45.1,14.3,45,14,45z"/>
			<path class="st3" d="M18,35c-0.3,0-0.5,0.1-0.7,0.3C17.1,35.5,17,35.7,17,36v6c0,0.3,0.1,0.5,0.3,0.7c0.2,0.2,0.4,0.3,0.7,0.3
				s0.5-0.1,0.7-0.3c0.2-0.2,0.3-0.4,0.3-0.7v-6c0-0.3-0.1-0.5-0.3-0.7S18.3,35,18,35z"/>
			<path class="st3" d="M18,45c-0.3,0-0.5,0.1-0.7,0.3C17.1,45.5,17,45.7,17,46v6c0,0.3,0.1,0.5,0.3,0.7c0.2,0.2,0.4,0.3,0.7,0.3
				s0.5-0.1,0.7-0.3c0.2-0.2,0.3-0.4,0.3-0.7v-6c0-0.3-0.1-0.5-0.3-0.7S18.3,45,18,45z"/>
			<path class="st3" d="M22,35c-0.3,0-0.5,0.1-0.7,0.3S21,35.7,21,36v6c0,0.3,0.1,0.5,0.3,0.7c0.2,0.2,0.4,0.3,0.7,0.3
				s0.5-0.1,0.7-0.3c0.2-0.2,0.3-0.4,0.3-0.7v-6c0-0.3-0.1-0.5-0.3-0.7C22.5,35.1,22.3,35,22,35z"/>
			<path class="st3" d="M22,45c-0.3,0-0.5,0.1-0.7,0.3S21,45.7,21,46v6c0,0.3,0.1,0.5,0.3,0.7c0.2,0.2,0.4,0.3,0.7,0.3
				s0.5-0.1,0.7-0.3c0.2-0.2,0.3-0.4,0.3-0.7v-6c0-0.3-0.1-0.5-0.3-0.7C22.5,45.1,22.3,45,22,45z"/>
			<path class="st3" d="M38,35c-0.3,0-0.5,0.1-0.7,0.3C37.1,35.5,37,35.7,37,36v6c0,0.3,0.1,0.5,0.3,0.7c0.2,0.2,0.4,0.3,0.7,0.3
				c0.3,0,0.5-0.1,0.7-0.3c0.2-0.2,0.3-0.4,0.3-0.7v-6c0-0.3-0.1-0.5-0.3-0.7S38.3,35,38,35z"/>
			<path class="st3" d="M38,45c-0.3,0-0.5,0.1-0.7,0.3C37.1,45.5,37,45.7,37,46v6c0,0.3,0.1,0.5,0.3,0.7c0.2,0.2,0.4,0.3,0.7,0.3
				c0.3,0,0.5-0.1,0.7-0.3c0.2-0.2,0.3-0.4,0.3-0.7v-6c0-0.3-0.1-0.5-0.3-0.7S38.3,45,38,45z"/>
			<path class="st3" d="M42,35c-0.3,0-0.5,0.1-0.7,0.3S41,35.7,41,36v6c0,0.3,0.1,0.5,0.3,0.7c0.2,0.2,0.4,0.3,0.7,0.3
				s0.5-0.1,0.7-0.3c0.2-0.2,0.3-0.4,0.3-0.7v-6c0-0.3-0.1-0.5-0.3-0.7C42.5,35.1,42.3,35,42,35z"/>
			<path class="st3" d="M42,45c-0.3,0-0.5,0.1-0.7,0.3S41,45.7,41,46v6c0,0.3,0.1,0.5,0.3,0.7c0.2,0.2,0.4,0.3,0.7,0.3
				s0.5-0.1,0.7-0.3c0.2-0.2,0.3-0.4,0.3-0.7v-6c0-0.3-0.1-0.5-0.3-0.7C42.5,45.1,42.3,45,42,45z"/>
			<path class="st3" d="M46,45c-0.3,0-0.5,0.1-0.7,0.3S45,45.7,45,46v6c0,0.3,0.1,0.5,0.3,0.7c0.2,0.2,0.4,0.3,0.7,0.3
				c0.3,0,0.5-0.1,0.7-0.3c0.2-0.2,0.3-0.4,0.3-0.7v-6c0-0.3-0.1-0.5-0.3-0.7S46.3,45,46,45z"/>
			<path class="st3" d="M50,45c-0.3,0-0.5,0.1-0.7,0.3C49.1,45.5,49,45.7,49,46v6c0,0.3,0.1,0.5,0.3,0.7c0.2,0.2,0.4,0.3,0.7,0.3
				s0.5-0.1,0.7-0.3c0.2-0.2,0.3-0.4,0.3-0.7v-6c0-0.3-0.1-0.5-0.3-0.7S50.3,45,50,45z"/>
			<path class="st3" d="M30,35c-0.3,0-0.5,0.1-0.7,0.3C29.1,35.5,29,35.7,29,36v6c0,0.3,0.1,0.5,0.3,0.7c0.2,0.2,0.4,0.3,0.7,0.3
				s0.5-0.1,0.7-0.3c0.2-0.2,0.3-0.4,0.3-0.7v-6c0-0.3-0.1-0.5-0.3-0.7S30.3,35,30,35z"/>
			<path class="st3" d="M30,45c-0.3,0-0.5,0.1-0.7,0.3C29.1,45.5,29,45.7,29,46v6c0,0.3,0.1,0.5,0.3,0.7c0.2,0.2,0.4,0.3,0.7,0.3
				s0.5-0.1,0.7-0.3c0.2-0.2,0.3-0.4,0.3-0.7v-6c0-0.3-0.1-0.5-0.3-0.7S30.3,45,30,45z"/>
			<path class="st3" d="M26,35c-0.3,0-0.5,0.1-0.7,0.3S25,35.7,25,36v6c0,0.3,0.1,0.5,0.3,0.7c0.2,0.2,0.4,0.3,0.7,0.3
				c0.3,0,0.5-0.1,0.7-0.3c0.2-0.2,0.3-0.4,0.3-0.7v-6c0-0.3-0.1-0.5-0.3-0.7S26.3,35,26,35z"/>
			<path class="st3" d="M26,45c-0.3,0-0.5,0.1-0.7,0.3S25,45.7,25,46v6c0,0.3,0.1,0.5,0.3,0.7c0.2,0.2,0.4,0.3,0.7,0.3
				c0.3,0,0.5-0.1,0.7-0.3c0.2-0.2,0.3-0.4,0.3-0.7v-6c0-0.3-0.1-0.5-0.3-0.7S26.3,45,26,45z"/>
			<path class="st3" d="M34,35c-0.3,0-0.5,0.1-0.7,0.3S33,35.7,33,36v6c0,0.3,0.1,0.5,0.3,0.7c0.2,0.2,0.4,0.3,0.7,0.3
				s0.5-0.1,0.7-0.3c0.2-0.2,0.3-0.4,0.3-0.7v-6c0-0.3-0.1-0.5-0.3-0.7C34.5,35.1,34.3,35,34,35z"/>
			<path class="st3" d="M34,45c-0.3,0-0.5,0.1-0.7,0.3S33,45.7,33,46v6c0,0.3,0.1,0.5,0.3,0.7c0.2,0.2,0.4,0.3,0.7,0.3
				s0.5-0.1,0.7-0.3c0.2-0.2,0.3-0.4,0.3-0.7v-6c0-0.3-0.1-0.5-0.3-0.7C34.5,45.1,34.3,45,34,45z"/>
			<path class="st3" d="M57.6,43.9L59.1,32c0.2,0,0.5-0.2,0.6-0.3c0.2-0.2,0.2-0.4,0.2-0.7v-6c0-0.3-0.1-0.5-0.3-0.7
				C59.5,24.1,59.3,24,59,24h-2.5c0.7-0.8,1.2-1.8,1.4-2.9c0.2-1.1,0.1-2.2-0.3-3.2c-0.4-1-1.1-1.9-1.9-2.6c-0.9-0.7-1.9-1.1-3-1.2
				c0.4-1.2,0.5-2.5,0.1-3.7c-0.4-1.2-1.1-2.3-2.1-3.1c-1-0.8-2.3-1.2-3.5-1.2c-1.3,0-2.5,0.4-3.6,1.1C42,5.2,39.6,4,37,4
				c-3.1,0-5.9,1.7-7.2,4.3C28.9,8,27.9,7.9,27,8.1c-0.9,0.2-1.8,0.5-2.6,1.1c-0.8,0.6-1.4,1.3-1.8,2.1S22,13.1,22,14
				c0,0.1,0,0.1,0,0.2c-0.7,0.1-1.4,0.4-2,0.6c-0.5-0.9-1.1-1.7-1.8-2.4c-1.2-1.2-2-2.8-2.2-4.5h1c0.3,0,0.5-0.1,0.7-0.3
				C17.9,7.5,18,7.3,18,7V5c0-0.8-0.3-1.6-0.9-2.1C16.6,2.3,15.8,2,15,2H9C8.2,2,7.4,2.3,6.9,2.9C6.3,3.4,6,4.2,6,5v2
				c0,0.3,0.1,0.5,0.3,0.7C6.5,7.9,6.7,8,7,8h1c-0.2,1.7-0.9,3.3-2.2,4.5c-0.9,0.8-1.6,1.9-2.1,3C3.2,16.6,3,17.8,3,19
				c0,0.7,0.3,1.5,0.8,2C3.3,21.5,3,22.3,3,23v1H1c-0.3,0-0.5,0.1-0.7,0.3C0.1,24.5,0,24.7,0,25v6c0,0.2,0.1,0.5,0.2,0.7
				C0.4,31.8,0.6,32,0.9,32l1.5,11.9l-2,3.6C0.1,48,0,48.6,0,49.1c0,0.6,0.2,1.1,0.5,1.5c0.3,0.5,0.7,0.8,1.2,1
				C2.3,52,2.8,52,3.4,52l0.3,2.7c0.2,1.9,1.9,3.4,4,3.4h44.7c2,0,3.7-1.4,4-3.4l0.3-2.7c0.6,0.1,1.2,0,1.8-0.3
				c0.3-0.2,0.7-0.4,0.9-0.8c0.2-0.3,0.4-0.7,0.5-1C60,49.4,60,49,60,48.6c0-0.4-0.2-0.8-0.3-1.1L57.6,43.9z M58,26v4h-7.9l-2.2-4
				H58z M57.1,32L56,40.9L51.2,32H57.1z M28,10c0.6,0,1.3,0.2,1.9,0.5c0.1,0.1,0.3,0.1,0.4,0.1s0.3,0,0.4-0.1
				c0.1-0.1,0.3-0.1,0.4-0.2c0.1-0.1,0.2-0.2,0.2-0.4C32,7.6,34.3,6,37,6c2.3,0,4.4,1.2,5.4,3.1c0.1,0.1,0.2,0.3,0.3,0.4
				c0.1,0.1,0.3,0.1,0.4,0.2c0.2,0,0.3,0,0.5-0.1c0.2-0.1,0.3-0.1,0.4-0.3c0.5-0.6,1.3-1,2-1.2c0.8-0.2,1.6-0.1,2.4,0.2
				c0.8,0.3,1.4,0.8,1.9,1.5c0.5,0.7,0.7,1.5,0.7,2.3c0,0.9-0.3,1.8-0.9,2.5c-0.1,0.2-0.2,0.4-0.2,0.6c0,0.2,0,0.4,0.1,0.6
				c0.1,0.2,0.3,0.3,0.5,0.4c0.2,0.1,0.4,0.1,0.6,0.1c0.5-0.1,1.1-0.1,1.7,0c0.6,0.1,1.1,0.3,1.5,0.7c0.5,0.3,0.8,0.7,1.1,1.2
				c0.3,0.5,0.5,1,0.5,1.6c0.1,0.6,0,1.1-0.2,1.7c-0.2,0.5-0.5,1-0.8,1.4c-0.4,0.4-0.8,0.8-1.3,1C53.1,23.9,52.6,24,52,24h-2.5
				c-0.5-1.6-1.4-3-2.5-4.1c-1.2-1.1-2.6-2-4.1-2.5c-1.6-0.5-3.2-0.6-4.8-0.2c-1.6,0.3-3.1,1-4.4,2c-0.2,0.2-0.4,0.4-0.6,0.6
				c-0.8-1.7-2.1-3.2-3.7-4.2S25.9,14,24,14c0-1.1,0.4-2.1,1.2-2.8C25.9,10.4,26.9,10,28,10z M47.4,24H32.6c0.5-1.3,1.3-2.4,2.4-3.2
				c1.4-1.1,3.2-1.8,5-1.8c1.8,0,3.6,0.6,5,1.8C46.1,21.6,46.9,22.7,47.4,24z M20.7,16.7c1.3-0.6,2.8-0.8,4.3-0.6
				c1.5,0.2,2.9,0.8,4,1.7c1.2,1,2.1,2.3,2.6,3.8c-0.5,0.8-0.9,1.6-1.2,2.4H21v-1c0-0.7-0.3-1.5-0.8-2c0.5-0.5,0.8-1.3,0.8-2
				C21,18.2,20.9,17.5,20.7,16.7z M44.7,26l-1.9,1c-0.2,0.1-0.4,0.3-0.5,0.6c-0.1,0.3,0,0.5,0.1,0.8l0.9,1.6H16.8l0.9-1.6
				c0.1-0.2,0.2-0.5,0.1-0.8s-0.2-0.5-0.5-0.6l-2-1.1H44.7z M8,5c0-0.3,0.1-0.5,0.3-0.7C8.5,4.1,8.7,4,9,4h6c0.3,0,0.5,0.1,0.7,0.3
				C15.9,4.5,16,4.7,16,5v1H8V5z M15.3,12H8.7c0.7-1.2,1.2-2.6,1.3-4h4C14.1,9.4,14.6,10.8,15.3,12z M7.1,14h9.8
				c0.7,0.6,1.2,1.4,1.6,2.3c0.4,0.9,0.5,1.8,0.5,2.7c0,0.3-0.1,0.5-0.3,0.7C18.5,19.9,18.3,20,18,20H6c-0.3,0-0.5-0.1-0.7-0.3
				C5.1,19.5,5,19.3,5,19c0-0.9,0.2-1.9,0.5-2.7C5.9,15.4,6.4,14.6,7.1,14z M5,23c0-0.3,0.1-0.5,0.3-0.7C5.5,22.1,5.7,22,6,22h12
				c0.3,0,0.5,0.1,0.7,0.3c0.2,0.2,0.3,0.4,0.3,0.7v1H5V23z M2,30v-4h10.1l-2.2,4H2z M8.9,32L4,40.9L2.9,32H8.9z M3.9,49.5
				c-0.1,0.2-0.2,0.3-0.4,0.4C3.4,49.9,3.2,50,3,50c-0.2,0-0.3,0-0.5-0.1c-0.2-0.1-0.4-0.3-0.5-0.6C2,49,2,48.8,2.1,48.5l11.5-21.1
				l1.8,1L3.9,49.5z M54.3,54.4c-0.1,0.9-1,1.6-2,1.6H7.7c-1,0-1.9-0.7-2-1.6L5.3,51c0.1-0.2,0.3-0.3,0.4-0.5L13,36.9V42
				c0,0.3,0.1,0.5,0.3,0.7c0.2,0.2,0.4,0.3,0.7,0.3s0.5-0.1,0.7-0.3c0.2-0.2,0.3-0.4,0.3-0.7v-6c0-0.3-0.1-0.5-0.3-0.7
				c-0.2-0.2-0.4-0.3-0.7-0.3l1.6-3h28.6l1.6,3c-0.3,0-0.5,0.1-0.7,0.3C45.1,35.5,45,35.7,45,36v6c0,0.3,0.1,0.5,0.3,0.7
				c0.2,0.2,0.4,0.3,0.7,0.3c0.3,0,0.5-0.1,0.7-0.3c0.2-0.2,0.3-0.4,0.3-0.7v-5.1l7.4,13.5c0.1,0.2,0.2,0.4,0.4,0.5L54.3,54.4z
				 M58,49.2c-0.1,0.2-0.2,0.4-0.3,0.5c-0.2,0.1-0.3,0.2-0.5,0.2c-0.2,0-0.4,0-0.6-0.1c-0.2-0.1-0.3-0.2-0.4-0.4L44.6,28.3l1.8-1
				l11.5,21.1c0.1,0.1,0.1,0.2,0.1,0.4C58,49,58,49.1,58,49.2z"/>
			<path class="st4" d="M10,45c-0.3,0-0.5,0.1-0.7,0.3C9.1,45.5,9,45.7,9,46v6c0,0.3,0.1,0.5,0.3,0.7C9.5,52.9,9.7,53,10,53
				c0.3,0,0.5-0.1,0.7-0.3c0.2-0.2,0.3-0.4,0.3-0.7v-6c0-0.3-0.1-0.5-0.3-0.7C10.5,45.1,10.3,45,10,45z"/>
			<path class="st4" d="M14,45c-0.3,0-0.5,0.1-0.7,0.3S13,45.7,13,46v6c0,0.3,0.1,0.5,0.3,0.7c0.2,0.2,0.4,0.3,0.7,0.3
				c0.3,0,0.5-0.1,0.7-0.3c0.2-0.2,0.3-0.4,0.3-0.7v-6c0-0.3-0.1-0.5-0.3-0.7C14.5,45.1,14.3,45,14,45z"/>
			<path class="st4" d="M18,35c-0.3,0-0.5,0.1-0.7,0.3C17.1,35.5,17,35.7,17,36v6c0,0.3,0.1,0.5,0.3,0.7c0.2,0.2,0.4,0.3,0.7,0.3
				s0.5-0.1,0.7-0.3c0.2-0.2,0.3-0.4,0.3-0.7v-6c0-0.3-0.1-0.5-0.3-0.7S18.3,35,18,35z"/>
			<path class="st4" d="M18,45c-0.3,0-0.5,0.1-0.7,0.3C17.1,45.5,17,45.7,17,46v6c0,0.3,0.1,0.5,0.3,0.7c0.2,0.2,0.4,0.3,0.7,0.3
				s0.5-0.1,0.7-0.3c0.2-0.2,0.3-0.4,0.3-0.7v-6c0-0.3-0.1-0.5-0.3-0.7S18.3,45,18,45z"/>
			<path class="st4" d="M22,35c-0.3,0-0.5,0.1-0.7,0.3S21,35.7,21,36v6c0,0.3,0.1,0.5,0.3,0.7c0.2,0.2,0.4,0.3,0.7,0.3
				s0.5-0.1,0.7-0.3c0.2-0.2,0.3-0.4,0.3-0.7v-6c0-0.3-0.1-0.5-0.3-0.7C22.5,35.1,22.3,35,22,35z"/>
			<path class="st4" d="M22,45c-0.3,0-0.5,0.1-0.7,0.3S21,45.7,21,46v6c0,0.3,0.1,0.5,0.3,0.7c0.2,0.2,0.4,0.3,0.7,0.3
				s0.5-0.1,0.7-0.3c0.2-0.2,0.3-0.4,0.3-0.7v-6c0-0.3-0.1-0.5-0.3-0.7C22.5,45.1,22.3,45,22,45z"/>
			<path class="st4" d="M38,35c-0.3,0-0.5,0.1-0.7,0.3C37.1,35.5,37,35.7,37,36v6c0,0.3,0.1,0.5,0.3,0.7c0.2,0.2,0.4,0.3,0.7,0.3
				c0.3,0,0.5-0.1,0.7-0.3c0.2-0.2,0.3-0.4,0.3-0.7v-6c0-0.3-0.1-0.5-0.3-0.7S38.3,35,38,35z"/>
			<path class="st4" d="M38,45c-0.3,0-0.5,0.1-0.7,0.3C37.1,45.5,37,45.7,37,46v6c0,0.3,0.1,0.5,0.3,0.7c0.2,0.2,0.4,0.3,0.7,0.3
				c0.3,0,0.5-0.1,0.7-0.3c0.2-0.2,0.3-0.4,0.3-0.7v-6c0-0.3-0.1-0.5-0.3-0.7S38.3,45,38,45z"/>
			<path class="st4" d="M42,35c-0.3,0-0.5,0.1-0.7,0.3S41,35.7,41,36v6c0,0.3,0.1,0.5,0.3,0.7c0.2,0.2,0.4,0.3,0.7,0.3
				s0.5-0.1,0.7-0.3c0.2-0.2,0.3-0.4,0.3-0.7v-6c0-0.3-0.1-0.5-0.3-0.7C42.5,35.1,42.3,35,42,35z"/>
			<path class="st4" d="M42,45c-0.3,0-0.5,0.1-0.7,0.3S41,45.7,41,46v6c0,0.3,0.1,0.5,0.3,0.7c0.2,0.2,0.4,0.3,0.7,0.3
				s0.5-0.1,0.7-0.3c0.2-0.2,0.3-0.4,0.3-0.7v-6c0-0.3-0.1-0.5-0.3-0.7C42.5,45.1,42.3,45,42,45z"/>
			<path class="st4" d="M46,45c-0.3,0-0.5,0.1-0.7,0.3S45,45.7,45,46v6c0,0.3,0.1,0.5,0.3,0.7c0.2,0.2,0.4,0.3,0.7,0.3
				c0.3,0,0.5-0.1,0.7-0.3c0.2-0.2,0.3-0.4,0.3-0.7v-6c0-0.3-0.1-0.5-0.3-0.7S46.3,45,46,45z"/>
			<path class="st4" d="M50,45c-0.3,0-0.5,0.1-0.7,0.3C49.1,45.5,49,45.7,49,46v6c0,0.3,0.1,0.5,0.3,0.7c0.2,0.2,0.4,0.3,0.7,0.3
				s0.5-0.1,0.7-0.3c0.2-0.2,0.3-0.4,0.3-0.7v-6c0-0.3-0.1-0.5-0.3-0.7S50.3,45,50,45z"/>
			<path class="st4" d="M30,35c-0.3,0-0.5,0.1-0.7,0.3C29.1,35.5,29,35.7,29,36v6c0,0.3,0.1,0.5,0.3,0.7c0.2,0.2,0.4,0.3,0.7,0.3
				s0.5-0.1,0.7-0.3c0.2-0.2,0.3-0.4,0.3-0.7v-6c0-0.3-0.1-0.5-0.3-0.7S30.3,35,30,35z"/>
			<path class="st4" d="M30,45c-0.3,0-0.5,0.1-0.7,0.3C29.1,45.5,29,45.7,29,46v6c0,0.3,0.1,0.5,0.3,0.7c0.2,0.2,0.4,0.3,0.7,0.3
				s0.5-0.1,0.7-0.3c0.2-0.2,0.3-0.4,0.3-0.7v-6c0-0.3-0.1-0.5-0.3-0.7S30.3,45,30,45z"/>
			<path class="st4" d="M26,35c-0.3,0-0.5,0.1-0.7,0.3S25,35.7,25,36v6c0,0.3,0.1,0.5,0.3,0.7c0.2,0.2,0.4,0.3,0.7,0.3
				c0.3,0,0.5-0.1,0.7-0.3c0.2-0.2,0.3-0.4,0.3-0.7v-6c0-0.3-0.1-0.5-0.3-0.7S26.3,35,26,35z"/>
			<path class="st4" d="M26,45c-0.3,0-0.5,0.1-0.7,0.3S25,45.7,25,46v6c0,0.3,0.1,0.5,0.3,0.7c0.2,0.2,0.4,0.3,0.7,0.3
				c0.3,0,0.5-0.1,0.7-0.3c0.2-0.2,0.3-0.4,0.3-0.7v-6c0-0.3-0.1-0.5-0.3-0.7S26.3,45,26,45z"/>
			<path class="st4" d="M34,35c-0.3,0-0.5,0.1-0.7,0.3S33,35.7,33,36v6c0,0.3,0.1,0.5,0.3,0.7c0.2,0.2,0.4,0.3,0.7,0.3
				s0.5-0.1,0.7-0.3c0.2-0.2,0.3-0.4,0.3-0.7v-6c0-0.3-0.1-0.5-0.3-0.7C34.5,35.1,34.3,35,34,35z"/>
			<path class="st4" d="M34,45c-0.3,0-0.5,0.1-0.7,0.3S33,45.7,33,46v6c0,0.3,0.1,0.5,0.3,0.7c0.2,0.2,0.4,0.3,0.7,0.3
				s0.5-0.1,0.7-0.3c0.2-0.2,0.3-0.4,0.3-0.7v-6c0-0.3-0.1-0.5-0.3-0.7C34.5,45.1,34.3,45,34,45z"/>
			<path class="st4" d="M57.6,43.9L59.1,32c0.2,0,0.5-0.2,0.6-0.3c0.2-0.2,0.2-0.4,0.2-0.7v-6c0-0.3-0.1-0.5-0.3-0.7
				C59.5,24.1,59.3,24,59,24h-2.5c0.7-0.8,1.2-1.8,1.4-2.9c0.2-1.1,0.1-2.2-0.3-3.2c-0.4-1-1.1-1.9-1.9-2.6c-0.9-0.7-1.9-1.1-3-1.2
				c0.4-1.2,0.5-2.5,0.1-3.7c-0.4-1.2-1.1-2.3-2.1-3.1c-1-0.8-2.3-1.2-3.5-1.2c-1.3,0-2.5,0.4-3.6,1.1C42,5.2,39.6,4,37,4
				c-3.1,0-5.9,1.7-7.2,4.3C28.9,8,27.9,7.9,27,8.1c-0.9,0.2-1.8,0.5-2.6,1.1c-0.8,0.6-1.4,1.3-1.8,2.1S22,13.1,22,14
				c0,0.1,0,0.1,0,0.2c-0.7,0.1-1.4,0.4-2,0.6c-0.5-0.9-1.1-1.7-1.8-2.4c-1.2-1.2-2-2.8-2.2-4.5h1c0.3,0,0.5-0.1,0.7-0.3
				C17.9,7.5,18,7.3,18,7V5c0-0.8-0.3-1.6-0.9-2.1C16.6,2.3,15.8,2,15,2H9C8.2,2,7.4,2.3,6.9,2.9C6.3,3.4,6,4.2,6,5v2
				c0,0.3,0.1,0.5,0.3,0.7C6.5,7.9,6.7,8,7,8h1c-0.2,1.7-0.9,3.3-2.2,4.5c-0.9,0.8-1.6,1.9-2.1,3C3.2,16.6,3,17.8,3,19
				c0,0.7,0.3,1.5,0.8,2C3.3,21.5,3,22.3,3,23v1H1c-0.3,0-0.5,0.1-0.7,0.3C0.1,24.5,0,24.7,0,25v6c0,0.2,0.1,0.5,0.2,0.7
				C0.4,31.8,0.6,32,0.9,32l1.5,11.9l-2,3.6C0.1,48,0,48.6,0,49.1c0,0.6,0.2,1.1,0.5,1.5c0.3,0.5,0.7,0.8,1.2,1
				C2.3,52,2.8,52,3.4,52l0.3,2.7c0.2,1.9,1.9,3.4,4,3.4h44.7c2,0,3.7-1.4,4-3.4l0.3-2.7c0.6,0.1,1.2,0,1.8-0.3
				c0.3-0.2,0.7-0.4,0.9-0.8c0.2-0.3,0.4-0.7,0.5-1C60,49.4,60,49,60,48.6c0-0.4-0.2-0.8-0.3-1.1L57.6,43.9z M58,26v4h-7.9l-2.2-4
				H58z M57.1,32L56,40.9L51.2,32H57.1z M28,10c0.6,0,1.3,0.2,1.9,0.5c0.1,0.1,0.3,0.1,0.4,0.1s0.3,0,0.4-0.1
				c0.1-0.1,0.3-0.1,0.4-0.2c0.1-0.1,0.2-0.2,0.2-0.4C32,7.6,34.3,6,37,6c2.3,0,4.4,1.2,5.4,3.1c0.1,0.1,0.2,0.3,0.3,0.4
				c0.1,0.1,0.3,0.1,0.4,0.2c0.2,0,0.3,0,0.5-0.1c0.2-0.1,0.3-0.1,0.4-0.3c0.5-0.6,1.3-1,2-1.2c0.8-0.2,1.6-0.1,2.4,0.2
				c0.8,0.3,1.4,0.8,1.9,1.5c0.5,0.7,0.7,1.5,0.7,2.3c0,0.9-0.3,1.8-0.9,2.5c-0.1,0.2-0.2,0.4-0.2,0.6c0,0.2,0,0.4,0.1,0.6
				c0.1,0.2,0.3,0.3,0.5,0.4c0.2,0.1,0.4,0.1,0.6,0.1c0.5-0.1,1.1-0.1,1.7,0c0.6,0.1,1.1,0.3,1.5,0.7c0.5,0.3,0.8,0.7,1.1,1.2
				c0.3,0.5,0.5,1,0.5,1.6c0.1,0.6,0,1.1-0.2,1.7c-0.2,0.5-0.5,1-0.8,1.4c-0.4,0.4-0.8,0.8-1.3,1C53.1,23.9,52.6,24,52,24h-2.5
				c-0.5-1.6-1.4-3-2.5-4.1c-1.2-1.1-2.6-2-4.1-2.5c-1.6-0.5-3.2-0.6-4.8-0.2c-1.6,0.3-3.1,1-4.4,2c-0.2,0.2-0.4,0.4-0.6,0.6
				c-0.8-1.7-2.1-3.2-3.7-4.2S25.9,14,24,14c0-1.1,0.4-2.1,1.2-2.8C25.9,10.4,26.9,10,28,10z M47.4,24H32.6c0.5-1.3,1.3-2.4,2.4-3.2
				c1.4-1.1,3.2-1.8,5-1.8c1.8,0,3.6,0.6,5,1.8C46.1,21.6,46.9,22.7,47.4,24z M20.7,16.7c1.3-0.6,2.8-0.8,4.3-0.6
				c1.5,0.2,2.9,0.8,4,1.7c1.2,1,2.1,2.3,2.6,3.8c-0.5,0.8-0.9,1.6-1.2,2.4H21v-1c0-0.7-0.3-1.5-0.8-2c0.5-0.5,0.8-1.3,0.8-2
				C21,18.2,20.9,17.5,20.7,16.7z M44.7,26l-1.9,1c-0.2,0.1-0.4,0.3-0.5,0.6c-0.1,0.3,0,0.5,0.1,0.8l0.9,1.6H16.8l0.9-1.6
				c0.1-0.2,0.2-0.5,0.1-0.8s-0.2-0.5-0.5-0.6l-2-1.1H44.7z M8,5c0-0.3,0.1-0.5,0.3-0.7C8.5,4.1,8.7,4,9,4h6c0.3,0,0.5,0.1,0.7,0.3
				C15.9,4.5,16,4.7,16,5v1H8V5z M15.3,12H8.7c0.7-1.2,1.2-2.6,1.3-4h4C14.1,9.4,14.6,10.8,15.3,12z M7.1,14h9.8
				c0.7,0.6,1.2,1.4,1.6,2.3c0.4,0.9,0.5,1.8,0.5,2.7c0,0.3-0.1,0.5-0.3,0.7C18.5,19.9,18.3,20,18,20H6c-0.3,0-0.5-0.1-0.7-0.3
				C5.1,19.5,5,19.3,5,19c0-0.9,0.2-1.9,0.5-2.7C5.9,15.4,6.4,14.6,7.1,14z M5,23c0-0.3,0.1-0.5,0.3-0.7C5.5,22.1,5.7,22,6,22h12
				c0.3,0,0.5,0.1,0.7,0.3c0.2,0.2,0.3,0.4,0.3,0.7v1H5V23z M2,30v-4h10.1l-2.2,4H2z M8.9,32L4,40.9L2.9,32H8.9z M3.9,49.5
				c-0.1,0.2-0.2,0.3-0.4,0.4C3.4,49.9,3.2,50,3,50c-0.2,0-0.3,0-0.5-0.1c-0.2-0.1-0.4-0.3-0.5-0.6C2,49,2,48.8,2.1,48.5l11.5-21.1
				l1.8,1L3.9,49.5z M54.3,54.4c-0.1,0.9-1,1.6-2,1.6H7.7c-1,0-1.9-0.7-2-1.6L5.3,51c0.1-0.2,0.3-0.3,0.4-0.5L13,36.9V42
				c0,0.3,0.1,0.5,0.3,0.7c0.2,0.2,0.4,0.3,0.7,0.3s0.5-0.1,0.7-0.3c0.2-0.2,0.3-0.4,0.3-0.7v-6c0-0.3-0.1-0.5-0.3-0.7
				c-0.2-0.2-0.4-0.3-0.7-0.3l1.6-3h28.6l1.6,3c-0.3,0-0.5,0.1-0.7,0.3C45.1,35.5,45,35.7,45,36v6c0,0.3,0.1,0.5,0.3,0.7
				c0.2,0.2,0.4,0.3,0.7,0.3c0.3,0,0.5-0.1,0.7-0.3c0.2-0.2,0.3-0.4,0.3-0.7v-5.1l7.4,13.5c0.1,0.2,0.2,0.4,0.4,0.5L54.3,54.4z
				 M58,49.2c-0.1,0.2-0.2,0.4-0.3,0.5c-0.2,0.1-0.3,0.2-0.5,0.2c-0.2,0-0.4,0-0.6-0.1c-0.2-0.1-0.3-0.2-0.4-0.4L44.6,28.3l1.8-1
				l11.5,21.1c0.1,0.1,0.1,0.2,0.1,0.4C58,49,58,49.1,58,49.2z"/>
		</g>
	</g>
</g>
<g id="Слой_3">
	<g>
		<defs>
			<rect id="SVGID_3_" width="60" height="60"/>
		</defs>
		<clipPath id="SVGID_4_">
			<use xlink:href="#SVGID_3_"  style="overflow:visible;"/>
		</clipPath>
		<g class="st5">
			<path class="st6" d="M10,45c-0.3,0-0.5,0.1-0.7,0.3C9.1,45.5,9,45.7,9,46v6c0,0.3,0.1,0.5,0.3,0.7C9.5,52.9,9.7,53,10,53
				c0.3,0,0.5-0.1,0.7-0.3c0.2-0.2,0.3-0.4,0.3-0.7v-6c0-0.3-0.1-0.5-0.3-0.7C10.5,45.1,10.3,45,10,45z"/>
			<path class="st6" d="M14,45c-0.3,0-0.5,0.1-0.7,0.3S13,45.7,13,46v6c0,0.3,0.1,0.5,0.3,0.7c0.2,0.2,0.4,0.3,0.7,0.3
				c0.3,0,0.5-0.1,0.7-0.3c0.2-0.2,0.3-0.4,0.3-0.7v-6c0-0.3-0.1-0.5-0.3-0.7C14.5,45.1,14.3,45,14,45z"/>
			<path class="st6" d="M18,35c-0.3,0-0.5,0.1-0.7,0.3C17.1,35.5,17,35.7,17,36v6c0,0.3,0.1,0.5,0.3,0.7c0.2,0.2,0.4,0.3,0.7,0.3
				s0.5-0.1,0.7-0.3c0.2-0.2,0.3-0.4,0.3-0.7v-6c0-0.3-0.1-0.5-0.3-0.7S18.3,35,18,35z"/>
			<path class="st6" d="M18,45c-0.3,0-0.5,0.1-0.7,0.3C17.1,45.5,17,45.7,17,46v6c0,0.3,0.1,0.5,0.3,0.7c0.2,0.2,0.4,0.3,0.7,0.3
				s0.5-0.1,0.7-0.3c0.2-0.2,0.3-0.4,0.3-0.7v-6c0-0.3-0.1-0.5-0.3-0.7S18.3,45,18,45z"/>
			<path class="st6" d="M22,35c-0.3,0-0.5,0.1-0.7,0.3S21,35.7,21,36v6c0,0.3,0.1,0.5,0.3,0.7c0.2,0.2,0.4,0.3,0.7,0.3
				s0.5-0.1,0.7-0.3c0.2-0.2,0.3-0.4,0.3-0.7v-6c0-0.3-0.1-0.5-0.3-0.7C22.5,35.1,22.3,35,22,35z"/>
			<path class="st6" d="M22,45c-0.3,0-0.5,0.1-0.7,0.3S21,45.7,21,46v6c0,0.3,0.1,0.5,0.3,0.7c0.2,0.2,0.4,0.3,0.7,0.3
				s0.5-0.1,0.7-0.3c0.2-0.2,0.3-0.4,0.3-0.7v-6c0-0.3-0.1-0.5-0.3-0.7C22.5,45.1,22.3,45,22,45z"/>
			<path class="st6" d="M38,35c-0.3,0-0.5,0.1-0.7,0.3C37.1,35.5,37,35.7,37,36v6c0,0.3,0.1,0.5,0.3,0.7c0.2,0.2,0.4,0.3,0.7,0.3
				c0.3,0,0.5-0.1,0.7-0.3c0.2-0.2,0.3-0.4,0.3-0.7v-6c0-0.3-0.1-0.5-0.3-0.7S38.3,35,38,35z"/>
			<path class="st6" d="M38,45c-0.3,0-0.5,0.1-0.7,0.3C37.1,45.5,37,45.7,37,46v6c0,0.3,0.1,0.5,0.3,0.7c0.2,0.2,0.4,0.3,0.7,0.3
				c0.3,0,0.5-0.1,0.7-0.3c0.2-0.2,0.3-0.4,0.3-0.7v-6c0-0.3-0.1-0.5-0.3-0.7S38.3,45,38,45z"/>
			<path class="st6" d="M42,35c-0.3,0-0.5,0.1-0.7,0.3S41,35.7,41,36v6c0,0.3,0.1,0.5,0.3,0.7c0.2,0.2,0.4,0.3,0.7,0.3
				s0.5-0.1,0.7-0.3c0.2-0.2,0.3-0.4,0.3-0.7v-6c0-0.3-0.1-0.5-0.3-0.7C42.5,35.1,42.3,35,42,35z"/>
			<path class="st3" d="M42,45c-0.3,0-0.5,0.1-0.7,0.3S41,45.7,41,46v6c0,0.3,0.1,0.5,0.3,0.7c0.2,0.2,0.4,0.3,0.7,0.3
				s0.5-0.1,0.7-0.3c0.2-0.2,0.3-0.4,0.3-0.7v-6c0-0.3-0.1-0.5-0.3-0.7C42.5,45.1,42.3,45,42,45z"/>
			<path class="st6" d="M46,45c-0.3,0-0.5,0.1-0.7,0.3S45,45.7,45,46v6c0,0.3,0.1,0.5,0.3,0.7c0.2,0.2,0.4,0.3,0.7,0.3
				c0.3,0,0.5-0.1,0.7-0.3c0.2-0.2,0.3-0.4,0.3-0.7v-6c0-0.3-0.1-0.5-0.3-0.7S46.3,45,46,45z"/>
			<path class="st3" d="M50,45c-0.3,0-0.5,0.1-0.7,0.3C49.1,45.5,49,45.7,49,46v6c0,0.3,0.1,0.5,0.3,0.7c0.2,0.2,0.4,0.3,0.7,0.3
				s0.5-0.1,0.7-0.3c0.2-0.2,0.3-0.4,0.3-0.7v-6c0-0.3-0.1-0.5-0.3-0.7S50.3,45,50,45z"/>
			<path class="st6" d="M30,35c-0.3,0-0.5,0.1-0.7,0.3C29.1,35.5,29,35.7,29,36v6c0,0.3,0.1,0.5,0.3,0.7c0.2,0.2,0.4,0.3,0.7,0.3
				s0.5-0.1,0.7-0.3c0.2-0.2,0.3-0.4,0.3-0.7v-6c0-0.3-0.1-0.5-0.3-0.7S30.3,35,30,35z"/>
			<path class="st6" d="M30,45c-0.3,0-0.5,0.1-0.7,0.3C29.1,45.5,29,45.7,29,46v6c0,0.3,0.1,0.5,0.3,0.7c0.2,0.2,0.4,0.3,0.7,0.3
				s0.5-0.1,0.7-0.3c0.2-0.2,0.3-0.4,0.3-0.7v-6c0-0.3-0.1-0.5-0.3-0.7S30.3,45,30,45z"/>
			<path class="st6" d="M26,35c-0.3,0-0.5,0.1-0.7,0.3S25,35.7,25,36v6c0,0.3,0.1,0.5,0.3,0.7c0.2,0.2,0.4,0.3,0.7,0.3
				c0.3,0,0.5-0.1,0.7-0.3c0.2-0.2,0.3-0.4,0.3-0.7v-6c0-0.3-0.1-0.5-0.3-0.7S26.3,35,26,35z"/>
			<path class="st6" d="M26,45c-0.3,0-0.5,0.1-0.7,0.3S25,45.7,25,46v6c0,0.3,0.1,0.5,0.3,0.7c0.2,0.2,0.4,0.3,0.7,0.3
				c0.3,0,0.5-0.1,0.7-0.3c0.2-0.2,0.3-0.4,0.3-0.7v-6c0-0.3-0.1-0.5-0.3-0.7S26.3,45,26,45z"/>
			<path class="st6" d="M34,35c-0.3,0-0.5,0.1-0.7,0.3S33,35.7,33,36v6c0,0.3,0.1,0.5,0.3,0.7c0.2,0.2,0.4,0.3,0.7,0.3
				s0.5-0.1,0.7-0.3c0.2-0.2,0.3-0.4,0.3-0.7v-6c0-0.3-0.1-0.5-0.3-0.7C34.5,35.1,34.3,35,34,35z"/>
			<path class="st6" d="M34,45c-0.3,0-0.5,0.1-0.7,0.3S33,45.7,33,46v6c0,0.3,0.1,0.5,0.3,0.7c0.2,0.2,0.4,0.3,0.7,0.3
				s0.5-0.1,0.7-0.3c0.2-0.2,0.3-0.4,0.3-0.7v-6c0-0.3-0.1-0.5-0.3-0.7C34.5,45.1,34.3,45,34,45z"/>
			<path class="st6" d="M57.6,43.9L59.1,32c0.2,0,0.5-0.2,0.6-0.3c0.2-0.2,0.2-0.4,0.2-0.7v-6c0-0.3-0.1-0.5-0.3-0.7
				C59.5,24.1,59.3,24,59,24h-2.5c0.7-0.8,1.2-1.8,1.4-2.9c0.2-1.1,0.1-2.2-0.3-3.2c-0.4-1-1.1-1.9-1.9-2.6c-0.9-0.7-1.9-1.1-3-1.2
				c0.4-1.2,0.5-2.5,0.1-3.7c-0.4-1.2-1.1-2.3-2.1-3.1c-1-0.8-2.3-1.2-3.5-1.2c-1.3,0-2.5,0.4-3.6,1.1C42,5.2,39.6,4,37,4
				c-3.1,0-5.9,1.7-7.2,4.3C28.9,8,27.9,7.9,27,8.1c-0.9,0.2-1.8,0.5-2.6,1.1c-0.8,0.6-1.4,1.3-1.8,2.1S22,13.1,22,14
				c0,0.1,0,0.1,0,0.2c-0.7,0.1-1.4,0.4-2,0.6c-0.5-0.9-1.1-1.7-1.8-2.4c-1.2-1.2-2-2.8-2.2-4.5h1c0.3,0,0.5-0.1,0.7-0.3
				C17.9,7.5,18,7.3,18,7V5c0-0.8-0.3-1.6-0.9-2.1C16.6,2.3,15.8,2,15,2H9C8.2,2,7.4,2.3,6.9,2.9C6.3,3.4,6,4.2,6,5v2
				c0,0.3,0.1,0.5,0.3,0.7C6.5,7.9,6.7,8,7,8h1c-0.2,1.7-0.9,3.3-2.2,4.5c-0.9,0.8-1.6,1.9-2.1,3C3.2,16.6,3,17.8,3,19
				c0,0.7,0.3,1.5,0.8,2C3.3,21.5,3,22.3,3,23v1H1c-0.3,0-0.5,0.1-0.7,0.3C0.1,24.5,0,24.7,0,25v6c0,0.2,0.1,0.5,0.2,0.7
				C0.4,31.8,0.6,32,0.9,32l1.5,11.9l-2,3.6C0.1,48,0,48.6,0,49.1c0,0.6,0.2,1.1,0.5,1.5c0.3,0.5,0.7,0.8,1.2,1
				C2.3,52,2.8,52,3.4,52l0.3,2.7c0.2,1.9,1.9,3.4,4,3.4h44.7c2,0,3.7-1.4,4-3.4l0.3-2.7c0.6,0.1,1.2,0,1.8-0.3
				c0.3-0.2,0.7-0.4,0.9-0.8c0.2-0.3,0.4-0.7,0.5-1C60,49.4,60,49,60,48.6c0-0.4-0.2-0.8-0.3-1.1L57.6,43.9z M58,26v4h-7.9l-2.2-4
				H58z M57.1,32L56,40.9L51.2,32H57.1z M28,10c0.6,0,1.3,0.2,1.9,0.5c0.1,0.1,0.3,0.1,0.4,0.1s0.3,0,0.4-0.1
				c0.1-0.1,0.3-0.1,0.4-0.2c0.1-0.1,0.2-0.2,0.2-0.4C32,7.6,34.3,6,37,6c2.3,0,4.4,1.2,5.4,3.1c0.1,0.1,0.2,0.3,0.3,0.4
				c0.1,0.1,0.3,0.1,0.4,0.2c0.2,0,0.3,0,0.5-0.1c0.2-0.1,0.3-0.1,0.4-0.3c0.5-0.6,1.3-1,2-1.2c0.8-0.2,1.6-0.1,2.4,0.2
				c0.8,0.3,1.4,0.8,1.9,1.5c0.5,0.7,0.7,1.5,0.7,2.3c0,0.9-0.3,1.8-0.9,2.5c-0.1,0.2-0.2,0.4-0.2,0.6c0,0.2,0,0.4,0.1,0.6
				c0.1,0.2,0.3,0.3,0.5,0.4c0.2,0.1,0.4,0.1,0.6,0.1c0.5-0.1,1.1-0.1,1.7,0c0.6,0.1,1.1,0.3,1.5,0.7c0.5,0.3,0.8,0.7,1.1,1.2
				c0.3,0.5,0.5,1,0.5,1.6c0.1,0.6,0,1.1-0.2,1.7c-0.2,0.5-0.5,1-0.8,1.4c-0.4,0.4-0.8,0.8-1.3,1C53.1,23.9,52.6,24,52,24h-2.5
				c-0.5-1.6-1.4-3-2.5-4.1c-1.2-1.1-2.6-2-4.1-2.5c-1.6-0.5-3.2-0.6-4.8-0.2c-1.6,0.3-3.1,1-4.4,2c-0.2,0.2-0.4,0.4-0.6,0.6
				c-0.8-1.7-2.1-3.2-3.7-4.2S25.9,14,24,14c0-1.1,0.4-2.1,1.2-2.8C25.9,10.4,26.9,10,28,10z M47.4,24H32.6c0.5-1.3,1.3-2.4,2.4-3.2
				c1.4-1.1,3.2-1.8,5-1.8c1.8,0,3.6,0.6,5,1.8C46.1,21.6,46.9,22.7,47.4,24z M20.7,16.7c1.3-0.6,2.8-0.8,4.3-0.6
				c1.5,0.2,2.9,0.8,4,1.7c1.2,1,2.1,2.3,2.6,3.8c-0.5,0.8-0.9,1.6-1.2,2.4H21v-1c0-0.7-0.3-1.5-0.8-2c0.5-0.5,0.8-1.3,0.8-2
				C21,18.2,20.9,17.5,20.7,16.7z M44.7,26l-1.9,1c-0.2,0.1-0.4,0.3-0.5,0.6c-0.1,0.3,0,0.5,0.1,0.8l0.9,1.6H16.8l0.9-1.6
				c0.1-0.2,0.2-0.5,0.1-0.8s-0.2-0.5-0.5-0.6l-2-1.1H44.7z M8,5c0-0.3,0.1-0.5,0.3-0.7C8.5,4.1,8.7,4,9,4h6c0.3,0,0.5,0.1,0.7,0.3
				C15.9,4.5,16,4.7,16,5v1H8V5z M15.3,12H8.7c0.7-1.2,1.2-2.6,1.3-4h4C14.1,9.4,14.6,10.8,15.3,12z M7.1,14h9.8
				c0.7,0.6,1.2,1.4,1.6,2.3c0.4,0.9,0.5,1.8,0.5,2.7c0,0.3-0.1,0.5-0.3,0.7C18.5,19.9,18.3,20,18,20H6c-0.3,0-0.5-0.1-0.7-0.3
				C5.1,19.5,5,19.3,5,19c0-0.9,0.2-1.9,0.5-2.7C5.9,15.4,6.4,14.6,7.1,14z M5,23c0-0.3,0.1-0.5,0.3-0.7C5.5,22.1,5.7,22,6,22h12
				c0.3,0,0.5,0.1,0.7,0.3c0.2,0.2,0.3,0.4,0.3,0.7v1H5V23z M2,30v-4h10.1l-2.2,4H2z M8.9,32L4,40.9L2.9,32H8.9z M3.9,49.5
				c-0.1,0.2-0.2,0.3-0.4,0.4C3.4,49.9,3.2,50,3,50c-0.2,0-0.3,0-0.5-0.1c-0.2-0.1-0.4-0.3-0.5-0.6C2,49,2,48.8,2.1,48.5l11.5-21.1
				l1.8,1L3.9,49.5z M54.3,54.4c-0.1,0.9-1,1.6-2,1.6H7.7c-1,0-1.9-0.7-2-1.6L5.3,51c0.1-0.2,0.3-0.3,0.4-0.5L13,36.9V42
				c0,0.3,0.1,0.5,0.3,0.7c0.2,0.2,0.4,0.3,0.7,0.3s0.5-0.1,0.7-0.3c0.2-0.2,0.3-0.4,0.3-0.7v-6c0-0.3-0.1-0.5-0.3-0.7
				c-0.2-0.2-0.4-0.3-0.7-0.3l1.6-3h28.6l1.6,3c-0.3,0-0.5,0.1-0.7,0.3C45.1,35.5,45,35.7,45,36v6c0,0.3,0.1,0.5,0.3,0.7
				c0.2,0.2,0.4,0.3,0.7,0.3c0.3,0,0.5-0.1,0.7-0.3c0.2-0.2,0.3-0.4,0.3-0.7v-5.1l7.4,13.5c0.1,0.2,0.2,0.4,0.4,0.5L54.3,54.4z
				 M58,49.2c-0.1,0.2-0.2,0.4-0.3,0.5c-0.2,0.1-0.3,0.2-0.5,0.2c-0.2,0-0.4,0-0.6-0.1c-0.2-0.1-0.3-0.2-0.4-0.4L44.6,28.3l1.8-1
				l11.5,21.1c0.1,0.1,0.1,0.2,0.1,0.4C58,49,58,49.1,58,49.2z"/>
			<path class="st7" d="M10,45c-0.3,0-0.5,0.1-0.7,0.3C9.1,45.5,9,45.7,9,46v6c0,0.3,0.1,0.5,0.3,0.7C9.5,52.9,9.7,53,10,53
				c0.3,0,0.5-0.1,0.7-0.3c0.2-0.2,0.3-0.4,0.3-0.7v-6c0-0.3-0.1-0.5-0.3-0.7C10.5,45.1,10.3,45,10,45z"/>
			<path class="st7" d="M14,45c-0.3,0-0.5,0.1-0.7,0.3S13,45.7,13,46v6c0,0.3,0.1,0.5,0.3,0.7c0.2,0.2,0.4,0.3,0.7,0.3
				c0.3,0,0.5-0.1,0.7-0.3c0.2-0.2,0.3-0.4,0.3-0.7v-6c0-0.3-0.1-0.5-0.3-0.7C14.5,45.1,14.3,45,14,45z"/>
			<path class="st7" d="M18,35c-0.3,0-0.5,0.1-0.7,0.3C17.1,35.5,17,35.7,17,36v6c0,0.3,0.1,0.5,0.3,0.7c0.2,0.2,0.4,0.3,0.7,0.3
				s0.5-0.1,0.7-0.3c0.2-0.2,0.3-0.4,0.3-0.7v-6c0-0.3-0.1-0.5-0.3-0.7S18.3,35,18,35z"/>
			<path class="st7" d="M18,45c-0.3,0-0.5,0.1-0.7,0.3C17.1,45.5,17,45.7,17,46v6c0,0.3,0.1,0.5,0.3,0.7c0.2,0.2,0.4,0.3,0.7,0.3
				s0.5-0.1,0.7-0.3c0.2-0.2,0.3-0.4,0.3-0.7v-6c0-0.3-0.1-0.5-0.3-0.7S18.3,45,18,45z"/>
			<path class="st7" d="M22,35c-0.3,0-0.5,0.1-0.7,0.3S21,35.7,21,36v6c0,0.3,0.1,0.5,0.3,0.7c0.2,0.2,0.4,0.3,0.7,0.3
				s0.5-0.1,0.7-0.3c0.2-0.2,0.3-0.4,0.3-0.7v-6c0-0.3-0.1-0.5-0.3-0.7C22.5,35.1,22.3,35,22,35z"/>
			<path class="st7" d="M22,45c-0.3,0-0.5,0.1-0.7,0.3S21,45.7,21,46v6c0,0.3,0.1,0.5,0.3,0.7c0.2,0.2,0.4,0.3,0.7,0.3
				s0.5-0.1,0.7-0.3c0.2-0.2,0.3-0.4,0.3-0.7v-6c0-0.3-0.1-0.5-0.3-0.7C22.5,45.1,22.3,45,22,45z"/>
			<path class="st7" d="M38,35c-0.3,0-0.5,0.1-0.7,0.3C37.1,35.5,37,35.7,37,36v6c0,0.3,0.1,0.5,0.3,0.7c0.2,0.2,0.4,0.3,0.7,0.3
				c0.3,0,0.5-0.1,0.7-0.3c0.2-0.2,0.3-0.4,0.3-0.7v-6c0-0.3-0.1-0.5-0.3-0.7S38.3,35,38,35z"/>
			<path class="st7" d="M38,45c-0.3,0-0.5,0.1-0.7,0.3C37.1,45.5,37,45.7,37,46v6c0,0.3,0.1,0.5,0.3,0.7c0.2,0.2,0.4,0.3,0.7,0.3
				c0.3,0,0.5-0.1,0.7-0.3c0.2-0.2,0.3-0.4,0.3-0.7v-6c0-0.3-0.1-0.5-0.3-0.7S38.3,45,38,45z"/>
			<path class="st7" d="M42,35c-0.3,0-0.5,0.1-0.7,0.3S41,35.7,41,36v6c0,0.3,0.1,0.5,0.3,0.7c0.2,0.2,0.4,0.3,0.7,0.3
				s0.5-0.1,0.7-0.3c0.2-0.2,0.3-0.4,0.3-0.7v-6c0-0.3-0.1-0.5-0.3-0.7C42.5,35.1,42.3,35,42,35z"/>
			<path class="st6" d="M42,45c-0.3,0-0.5,0.1-0.7,0.3S41,45.7,41,46v6c0,0.3,0.1,0.5,0.3,0.7c0.2,0.2,0.4,0.3,0.7,0.3
				s0.5-0.1,0.7-0.3c0.2-0.2,0.3-0.4,0.3-0.7v-6c0-0.3-0.1-0.5-0.3-0.7C42.5,45.1,42.3,45,42,45z"/>
			<path class="st7" d="M46,45c-0.3,0-0.5,0.1-0.7,0.3S45,45.7,45,46v6c0,0.3,0.1,0.5,0.3,0.7c0.2,0.2,0.4,0.3,0.7,0.3
				c0.3,0,0.5-0.1,0.7-0.3c0.2-0.2,0.3-0.4,0.3-0.7v-6c0-0.3-0.1-0.5-0.3-0.7S46.3,45,46,45z"/>
			<path class="st6" d="M50,45c-0.3,0-0.5,0.1-0.7,0.3C49.1,45.5,49,45.7,49,46v6c0,0.3,0.1,0.5,0.3,0.7c0.2,0.2,0.4,0.3,0.7,0.3
				s0.5-0.1,0.7-0.3c0.2-0.2,0.3-0.4,0.3-0.7v-6c0-0.3-0.1-0.5-0.3-0.7S50.3,45,50,45z"/>
			<path class="st7" d="M30,35c-0.3,0-0.5,0.1-0.7,0.3C29.1,35.5,29,35.7,29,36v6c0,0.3,0.1,0.5,0.3,0.7c0.2,0.2,0.4,0.3,0.7,0.3
				s0.5-0.1,0.7-0.3c0.2-0.2,0.3-0.4,0.3-0.7v-6c0-0.3-0.1-0.5-0.3-0.7S30.3,35,30,35z"/>
			<path class="st7" d="M30,45c-0.3,0-0.5,0.1-0.7,0.3C29.1,45.5,29,45.7,29,46v6c0,0.3,0.1,0.5,0.3,0.7c0.2,0.2,0.4,0.3,0.7,0.3
				s0.5-0.1,0.7-0.3c0.2-0.2,0.3-0.4,0.3-0.7v-6c0-0.3-0.1-0.5-0.3-0.7S30.3,45,30,45z"/>
			<path class="st7" d="M26,35c-0.3,0-0.5,0.1-0.7,0.3S25,35.7,25,36v6c0,0.3,0.1,0.5,0.3,0.7c0.2,0.2,0.4,0.3,0.7,0.3
				c0.3,0,0.5-0.1,0.7-0.3c0.2-0.2,0.3-0.4,0.3-0.7v-6c0-0.3-0.1-0.5-0.3-0.7S26.3,35,26,35z"/>
			<path class="st7" d="M26,45c-0.3,0-0.5,0.1-0.7,0.3S25,45.7,25,46v6c0,0.3,0.1,0.5,0.3,0.7c0.2,0.2,0.4,0.3,0.7,0.3
				c0.3,0,0.5-0.1,0.7-0.3c0.2-0.2,0.3-0.4,0.3-0.7v-6c0-0.3-0.1-0.5-0.3-0.7S26.3,45,26,45z"/>
			<path class="st7" d="M34,35c-0.3,0-0.5,0.1-0.7,0.3S33,35.7,33,36v6c0,0.3,0.1,0.5,0.3,0.7c0.2,0.2,0.4,0.3,0.7,0.3
				s0.5-0.1,0.7-0.3c0.2-0.2,0.3-0.4,0.3-0.7v-6c0-0.3-0.1-0.5-0.3-0.7C34.5,35.1,34.3,35,34,35z"/>
			<path class="st7" d="M34,45c-0.3,0-0.5,0.1-0.7,0.3S33,45.7,33,46v6c0,0.3,0.1,0.5,0.3,0.7c0.2,0.2,0.4,0.3,0.7,0.3
				s0.5-0.1,0.7-0.3c0.2-0.2,0.3-0.4,0.3-0.7v-6c0-0.3-0.1-0.5-0.3-0.7C34.5,45.1,34.3,45,34,45z"/>
			<path class="st7" d="M57.6,43.9L59.1,32c0.2,0,0.5-0.2,0.6-0.3c0.2-0.2,0.2-0.4,0.2-0.7v-6c0-0.3-0.1-0.5-0.3-0.7
				C59.5,24.1,59.3,24,59,24h-2.5c0.7-0.8,1.2-1.8,1.4-2.9c0.2-1.1,0.1-2.2-0.3-3.2c-0.4-1-1.1-1.9-1.9-2.6c-0.9-0.7-1.9-1.1-3-1.2
				c0.4-1.2,0.5-2.5,0.1-3.7c-0.4-1.2-1.1-2.3-2.1-3.1c-1-0.8-2.3-1.2-3.5-1.2c-1.3,0-2.5,0.4-3.6,1.1C42,5.2,39.6,4,37,4
				c-3.1,0-5.9,1.7-7.2,4.3C28.9,8,27.9,7.9,27,8.1c-0.9,0.2-1.8,0.5-2.6,1.1c-0.8,0.6-1.4,1.3-1.8,2.1S22,13.1,22,14
				c0,0.1,0,0.1,0,0.2c-0.7,0.1-1.4,0.4-2,0.6c-0.5-0.9-1.1-1.7-1.8-2.4c-1.2-1.2-2-2.8-2.2-4.5h1c0.3,0,0.5-0.1,0.7-0.3
				C17.9,7.5,18,7.3,18,7V5c0-0.8-0.3-1.6-0.9-2.1C16.6,2.3,15.8,2,15,2H9C8.2,2,7.4,2.3,6.9,2.9C6.3,3.4,6,4.2,6,5v2
				c0,0.3,0.1,0.5,0.3,0.7C6.5,7.9,6.7,8,7,8h1c-0.2,1.7-0.9,3.3-2.2,4.5c-0.9,0.8-1.6,1.9-2.1,3C3.2,16.6,3,17.8,3,19
				c0,0.7,0.3,1.5,0.8,2C3.3,21.5,3,22.3,3,23v1H1c-0.3,0-0.5,0.1-0.7,0.3C0.1,24.5,0,24.7,0,25v6c0,0.2,0.1,0.5,0.2,0.7
				C0.4,31.8,0.6,32,0.9,32l1.5,11.9l-2,3.6C0.1,48,0,48.6,0,49.1c0,0.6,0.2,1.1,0.5,1.5c0.3,0.5,0.7,0.8,1.2,1
				C2.3,52,2.8,52,3.4,52l0.3,2.7c0.2,1.9,1.9,3.4,4,3.4h44.7c2,0,3.7-1.4,4-3.4l0.3-2.7c0.6,0.1,1.2,0,1.8-0.3
				c0.3-0.2,0.7-0.4,0.9-0.8c0.2-0.3,0.4-0.7,0.5-1C60,49.4,60,49,60,48.6c0-0.4-0.2-0.8-0.3-1.1L57.6,43.9z M58,26v4h-7.9l-2.2-4
				H58z M57.1,32L56,40.9L51.2,32H57.1z M28,10c0.6,0,1.3,0.2,1.9,0.5c0.1,0.1,0.3,0.1,0.4,0.1s0.3,0,0.4-0.1
				c0.1-0.1,0.3-0.1,0.4-0.2c0.1-0.1,0.2-0.2,0.2-0.4C32,7.6,34.3,6,37,6c2.3,0,4.4,1.2,5.4,3.1c0.1,0.1,0.2,0.3,0.3,0.4
				c0.1,0.1,0.3,0.1,0.4,0.2c0.2,0,0.3,0,0.5-0.1c0.2-0.1,0.3-0.1,0.4-0.3c0.5-0.6,1.3-1,2-1.2c0.8-0.2,1.6-0.1,2.4,0.2
				c0.8,0.3,1.4,0.8,1.9,1.5c0.5,0.7,0.7,1.5,0.7,2.3c0,0.9-0.3,1.8-0.9,2.5c-0.1,0.2-0.2,0.4-0.2,0.6c0,0.2,0,0.4,0.1,0.6
				c0.1,0.2,0.3,0.3,0.5,0.4c0.2,0.1,0.4,0.1,0.6,0.1c0.5-0.1,1.1-0.1,1.7,0c0.6,0.1,1.1,0.3,1.5,0.7c0.5,0.3,0.8,0.7,1.1,1.2
				c0.3,0.5,0.5,1,0.5,1.6c0.1,0.6,0,1.1-0.2,1.7c-0.2,0.5-0.5,1-0.8,1.4c-0.4,0.4-0.8,0.8-1.3,1C53.1,23.9,52.6,24,52,24h-2.5
				c-0.5-1.6-1.4-3-2.5-4.1c-1.2-1.1-2.6-2-4.1-2.5c-1.6-0.5-3.2-0.6-4.8-0.2c-1.6,0.3-3.1,1-4.4,2c-0.2,0.2-0.4,0.4-0.6,0.6
				c-0.8-1.7-2.1-3.2-3.7-4.2S25.9,14,24,14c0-1.1,0.4-2.1,1.2-2.8C25.9,10.4,26.9,10,28,10z M47.4,24H32.6c0.5-1.3,1.3-2.4,2.4-3.2
				c1.4-1.1,3.2-1.8,5-1.8c1.8,0,3.6,0.6,5,1.8C46.1,21.6,46.9,22.7,47.4,24z M20.7,16.7c1.3-0.6,2.8-0.8,4.3-0.6
				c1.5,0.2,2.9,0.8,4,1.7c1.2,1,2.1,2.3,2.6,3.8c-0.5,0.8-0.9,1.6-1.2,2.4H21v-1c0-0.7-0.3-1.5-0.8-2c0.5-0.5,0.8-1.3,0.8-2
				C21,18.2,20.9,17.5,20.7,16.7z M44.7,26l-1.9,1c-0.2,0.1-0.4,0.3-0.5,0.6c-0.1,0.3,0,0.5,0.1,0.8l0.9,1.6H16.8l0.9-1.6
				c0.1-0.2,0.2-0.5,0.1-0.8s-0.2-0.5-0.5-0.6l-2-1.1H44.7z M8,5c0-0.3,0.1-0.5,0.3-0.7C8.5,4.1,8.7,4,9,4h6c0.3,0,0.5,0.1,0.7,0.3
				C15.9,4.5,16,4.7,16,5v1H8V5z M15.3,12H8.7c0.7-1.2,1.2-2.6,1.3-4h4C14.1,9.4,14.6,10.8,15.3,12z M7.1,14h9.8
				c0.7,0.6,1.2,1.4,1.6,2.3c0.4,0.9,0.5,1.8,0.5,2.7c0,0.3-0.1,0.5-0.3,0.7C18.5,19.9,18.3,20,18,20H6c-0.3,0-0.5-0.1-0.7-0.3
				C5.1,19.5,5,19.3,5,19c0-0.9,0.2-1.9,0.5-2.7C5.9,15.4,6.4,14.6,7.1,14z M5,23c0-0.3,0.1-0.5,0.3-0.7C5.5,22.1,5.7,22,6,22h12
				c0.3,0,0.5,0.1,0.7,0.3c0.2,0.2,0.3,0.4,0.3,0.7v1H5V23z M2,30v-4h10.1l-2.2,4H2z M8.9,32L4,40.9L2.9,32H8.9z M3.9,49.5
				c-0.1,0.2-0.2,0.3-0.4,0.4C3.4,49.9,3.2,50,3,50c-0.2,0-0.3,0-0.5-0.1c-0.2-0.1-0.4-0.3-0.5-0.6C2,49,2,48.8,2.1,48.5l11.5-21.1
				l1.8,1L3.9,49.5z M54.3,54.4c-0.1,0.9-1,1.6-2,1.6H7.7c-1,0-1.9-0.7-2-1.6L5.3,51c0.1-0.2,0.3-0.3,0.4-0.5L13,36.9V42
				c0,0.3,0.1,0.5,0.3,0.7c0.2,0.2,0.4,0.3,0.7,0.3s0.5-0.1,0.7-0.3c0.2-0.2,0.3-0.4,0.3-0.7v-6c0-0.3-0.1-0.5-0.3-0.7
				c-0.2-0.2-0.4-0.3-0.7-0.3l1.6-3h28.6l1.6,3c-0.3,0-0.5,0.1-0.7,0.3C45.1,35.5,45,35.7,45,36v6c0,0.3,0.1,0.5,0.3,0.7
				c0.2,0.2,0.4,0.3,0.7,0.3c0.3,0,0.5-0.1,0.7-0.3c0.2-0.2,0.3-0.4,0.3-0.7v-5.1l7.4,13.5c0.1,0.2,0.2,0.4,0.4,0.5L54.3,54.4z
				 M58,49.2c-0.1,0.2-0.2,0.4-0.3,0.5c-0.2,0.1-0.3,0.2-0.5,0.2c-0.2,0-0.4,0-0.6-0.1c-0.2-0.1-0.3-0.2-0.4-0.4L44.6,28.3l1.8-1
				l11.5,21.1c0.1,0.1,0.1,0.2,0.1,0.4C58,49,58,49.1,58,49.2z"/>
		</g>
	</g>
</g>
</svg>
