<?xml version="1.0" encoding="utf-8"?>
<!-- Generator: Adobe Illustrator 21.1.0, SVG Export Plug-In . SVG Version: 6.00 Build 0)  -->
<svg version="1.1" xmlns="http://www.w3.org/2000/svg" xmlns:xlink="http://www.w3.org/1999/xlink" x="0px" y="0px"
	 viewBox="0 0 58 59" style="enable-background:new 0 0 58 59;" xml:space="preserve">
<style type="text/css">
	.st0{display:none;}
	.st1{display:inline;fill:#F37321;}
	.st2{fill:#FFFFFF;}
</style>
<g id="Слой_1" class="st0">
	<path class="st1" d="M51.3,26.1c-0.3-0.1-0.6,0-0.9,0.1c-0.3,0.2-0.5,0.4-0.5,0.8c-0.2,0.6,0.2,1.3,0.9,1.4
		c4.6,1.3,4.6,2.8,4.6,3.7c0,0.8-1.3,1.8-3.5,2.7c0-0.1-0.1-0.2-0.1-0.4c-0.2-1-0.5-1.9-2.3-2.7c-0.3-0.1-0.6-0.1-0.9,0
		c-0.3,0.1-0.5,0.4-0.6,0.7c-0.2,0.6,0.2,1.2,0.8,1.5c1,0.4,1,0.9,1,1.3c0,0.1,0,0.1,0,0.2c-4.1,1.2-9.7,1.9-15.7,1.9
		c-5.9,0-11.4-0.7-15.6-1.9c0.5-0.6,2.6-1.9,7.3-2.6c0.6-0.1,1.1-0.7,1-1.4c0-0.3-0.2-0.6-0.5-0.8c-0.3-0.2-0.6-0.3-0.9-0.2
		c-2.5,0.4-4.6,1-6.1,1.6c-1.6,0.7-2.7,1.6-3.1,2.6C14,34,12.7,33,12.7,32.2c0-0.2,0.2-1.6,4.3-3c2.9-1,7-1.8,11.5-2.1
		c0.7-0.1,1.2-0.6,1.1-1.3c0-0.3-0.2-0.6-0.4-0.8c-0.2-0.2-0.5-0.3-0.9-0.3c-4.7,0.4-9,1.2-12.1,2.3c-4.9,1.7-5.9,3.8-5.9,5.3
		c0,2,0.4,4,1.1,5.9l1.6,4c0.1,0.3,0.3,0.5,0.6,0.7c0.3,0.1,0.6,0.1,0.9,0c0.3-0.1,0.5-0.3,0.7-0.6c0.1-0.3,0.1-0.6,0-0.9l-1.6-4
		c-0.1-0.3-0.3-0.7-0.4-1c1.2,0.7,2.7,1.3,4.5,1.8c4.4,1.3,10.1,2,16.2,2s11.9-0.7,16.2-2c1.8-0.5,3.3-1.1,4.5-1.8
		c-0.1,0.3-0.2,0.7-0.4,1l-3.2,8.3c-0.2,0.5-0.4,0.9-0.7,1.4c-0.4,0.6-0.2,1.3,0.3,1.7c0.2,0.2,0.5,0.3,0.7,0.3c0.1,0,0.1,0,0.2,0
		c0.3,0,0.6-0.2,0.7-0.5c0.4-0.6,0.7-1.3,1-2l3.2-8.3c0.7-1.9,1.1-3.9,1.1-5.9C57.8,28.5,53.7,26.8,51.3,26.1z"/>
	<path class="st1" d="M31.1,27.2l-2.3,4.6c-0.3,0.6,0,1.3,0.5,1.6c0.6,0.3,1.3,0,1.6-0.5l2.3-4.6c1.8-3.6,4.8-6.4,8.5-8
		c0,0,0,0.1,0,0.1c-2.5,2.2-4.9,5.2-6.5,8.4l-2.3,4.5c-0.2,0.3-0.2,0.6-0.1,0.9c0.1,0.3,0.3,0.5,0.6,0.7c0.3,0.1,0.6,0.2,0.9,0.1
		c0.3-0.1,0.5-0.3,0.7-0.6l2.3-4.5c1.5-2.9,3.6-5.6,5.9-7.6c0.1,0,0.1,0.1,0.2,0.1c0.1,0,0.1,0.1,0.2,0.1l-1.1,2
		c-1,1.9-2.1,3.9-3.2,5.9l-1.7,3.2c-0.3,0.6-0.1,1.3,0.5,1.6c0.6,0.3,1.3,0.1,1.6-0.5l1.7-3.2c1.1-2.1,2.1-4,3.1-5.9l1-1.8
		c0,2.9-0.7,5.7-2.1,8.2l-0.9,1.6c-0.2,0.3-0.2,0.6-0.1,0.9s0.3,0.6,0.6,0.7c0.2,0.1,0.4,0.2,0.6,0.2c0.1,0,0.2,0,0.3,0
		c0.3-0.1,0.6-0.3,0.7-0.6l0.9-1.6c1.8-3.4,2.6-7.2,2.3-11c0.4-0.3,0.7-0.6,0.9-1l7.5-12.2c0.5-0.9,0.7-2,0.5-3
		c-0.2-1-0.9-1.9-1.8-2.4c-0.9-0.5-2-0.7-3-0.5c-1,0.3-1.9,0.9-2.4,1.8L42.1,17c-0.1,0.2-0.3,0.5-0.4,0.7
		C37.1,19.4,33.3,22.8,31.1,27.2z M53.1,5.3c0.2,0,0.4,0.1,0.6,0.2c0.2,0.1,0.3,0.2,0.4,0.4s0.2,0.3,0.3,0.6c0,0.2,0.1,0.4,0,0.6
		c0,0.2-0.1,0.4-0.2,0.6l-7.5,12.2c-0.1,0.2-0.2,0.3-0.4,0.4c-0.2,0.1-0.3,0.2-0.5,0.3c-0.2,0.1-0.4,0.1-0.6,0
		c-0.2,0-0.4-0.1-0.6-0.2c-0.2-0.1-0.3-0.2-0.4-0.4c-0.1-0.2-0.2-0.4-0.3-0.6c0-0.2-0.1-0.4,0-0.6c0-0.2,0.1-0.4,0.2-0.6L51.5,6
		c0.1-0.2,0.2-0.3,0.4-0.4c0.2-0.1,0.3-0.2,0.5-0.3c0.1,0,0.2,0,0.4,0C52.9,5.3,53,5.3,53.1,5.3z"/>
	<path class="st1" d="M1.8,45.5c0.1,0.1,0.3,0.1,0.5,0.1c0.2,0,0.3,0,0.5-0.1c0.5-0.3,0.8-0.9,0.7-1.6c0-0.2-0.1-0.4-0.1-0.7v-1.1
		c0-9.7,1.5-19.3,4.5-28.5h20c-0.7,2.3-1.4,4.7-1.9,7c-0.1,0.3,0,0.6,0.1,0.9s0.4,0.5,0.8,0.5c0.6,0.1,1.3-0.3,1.4-0.9
		c0.6-2.5,1.3-5,2.1-7.5h1.8c1.1,0,2.1-0.4,2.8-1.2c0.8-0.8,1.2-1.8,1.2-2.8V6.8c0-0.2,0-0.3-0.1-0.5S36,6.1,35.9,6
		c-0.1-0.1-0.2-0.2-0.4-0.3S35.2,5.6,35,5.6h-4.4c0.1-0.8,0.4-1.6,1-2.2c0.7-0.7,1.5-1,2.5-1h0.2c0.8,0,1.5,0.3,2.1,0.7
		c0.6,0.5,1,1.1,1.3,1.9l1,3.5c0.2,0.9,0.5,1.8,0.7,2.7c0.2,0.6,0.8,1,1.4,0.9c0.3-0.1,0.6-0.3,0.7-0.5c0.2-0.3,0.2-0.6,0.1-0.9
		c-0.2-0.9-0.5-1.9-0.7-2.8l-1-3.5c-0.3-1.2-1.1-2.3-2.1-3.1c-1-0.8-2.3-1.2-3.6-1.2H8.8c-1.6,0-3,0.6-4.2,1.7S2.9,4.3,2.9,5.9v3.8
		c0,0.8,0.3,1.7,0.8,2.4c0.5,0.6,1.1,1.1,1.8,1.4c-3,9.3-4.5,19-4.5,28.8v1.1c0,0.5,0.1,1.1,0.2,1.6C1.3,45.1,1.5,45.3,1.8,45.5z
		 M33.8,9.6c0,0.4-0.2,0.9-0.5,1.2c-0.6,0.6-1.7,0.6-2.3,0c-0.3-0.3-0.5-0.7-0.5-1.2V8h3.2L33.8,9.6L33.8,9.6z M28.5,11.3H6.9
		c-0.4,0-0.8-0.2-1.2-0.5c-0.3-0.3-0.5-0.7-0.5-1.2V5.9c0-0.9,0.4-1.8,1-2.5s1.5-1,2.5-1h20.6c-0.8,1-1.2,2.2-1.2,3.5v3.8
		C28.2,10.2,28.3,10.7,28.5,11.3z"/>
	<path class="st1" d="M48.1,49.2c-0.4-0.3-0.8-0.6-1.3-0.8c-0.5-0.2-1-0.2-1.5-0.2l-0.7,0.1c-0.6-0.9-1.4-1.7-2.4-2.3
		c-1-0.6-2.2-0.9-3.3-0.9H11.6c-1.2,0-2.3,0.3-3.3,0.9c-1,0.5-1.8,1.3-2.4,2.3l-0.7-0.1c-0.5-0.1-1,0-1.5,0.2s-0.9,0.4-1.3,0.7
		c-0.4,0.3-0.7,0.7-0.9,1.2c-0.2,0.5-0.3,1-0.4,1.5c0,0.5,0.1,1,0.2,1.5s0.5,0.9,0.8,1.3c0.3,0.4,0.8,0.7,1.2,0.9
		c0.6,0.3,1.2,0.4,1.8,0.3l0.7-0.1c0.6,0.9,1.4,1.7,2.4,2.3c1,0.6,2.2,0.9,3.3,0.9h27.2c0,0,0,0,0,0c0.9,0,1.8-0.2,2.6-0.5
		c0.8-0.3,1.6-0.8,2.2-1.5c0.3-0.4,0.7-0.7,0.9-1.1l0.7,0.1c0.9,0.1,1.7-0.2,2.5-0.6c0.6-0.4,1.1-1,1.4-1.7c0.3-0.7,0.3-1.5,0.2-2.2
		C49,50.3,48.7,49.7,48.1,49.2z M45.4,50.6c0.2,0,0.4,0,0.6,0.1s0.3,0.2,0.5,0.3c0.1,0.1,0.3,0.3,0.3,0.4c0.1,0.2,0.1,0.4,0.1,0.5
		c0,0.2,0,0.4-0.1,0.5c-0.1,0.2-0.2,0.3-0.3,0.5c-0.1,0.1-0.3,0.2-0.5,0.3c-0.2,0.1-0.4,0.1-0.7,0.1h0
		C45.6,52.4,45.6,51.5,45.4,50.6z M4.8,50.6c0,0,0.1,0,0.1,0l5.6,0.5c0.2,0,0.4,0.1,0.6,0.3c0.1,0.2,0.2,0.4,0.2,0.6
		s-0.1,0.4-0.2,0.6s-0.3,0.3-0.6,0.3l-5.6,0.5c-0.2,0-0.4,0-0.6-0.1C4.2,53.2,4,53.1,3.9,53s-0.3-0.3-0.3-0.4
		c-0.1-0.2-0.1-0.4-0.1-0.5c0-0.2,0-0.4,0.1-0.5c0.1-0.2,0.2-0.3,0.3-0.5c0.1-0.1,0.3-0.2,0.5-0.3C4.4,50.6,4.6,50.6,4.8,50.6z
		 M10.7,55.2c0.8-0.1,1.6-0.4,2.1-1c0.5-0.6,0.8-1.4,0.8-2.2s-0.3-1.6-0.8-2.2c-0.6-0.6-1.3-1-2.1-1l-2-0.2c0.4-0.4,1-0.7,1.6-0.8
		c0.7-0.2,1.4-0.3,2.2-0.1s1.4,0.5,1.9,0.9c0.6,0.5,1,1.1,1.3,1.7c0.3,0.7,0.4,1.4,0.3,2.1c-0.1,0.7-0.3,1.4-0.7,2
		c-0.4,0.6-1,1.1-1.6,1.5c-0.6,0.3-1.4,0.5-2.1,0.5c-0.6,0-1.2-0.1-1.8-0.4c-0.4-0.2-0.8-0.4-1.1-0.7L10.7,55.2z M17.8,54.6
		c0.4-0.8,0.5-1.7,0.5-2.6s-0.2-1.8-0.5-2.6c-0.3-0.7-0.6-1.3-1.1-1.8h22c0.9,0,1.7,0.3,2.5,0.8c0.7,0.5,1.3,1.2,1.6,2
		c0.3,0.8,0.4,1.7,0.3,2.6c-0.2,0.9-0.6,1.7-1.2,2.3c-0.4,0.4-0.9,0.7-1.4,1s-1.1,0.3-1.7,0.3h-22C17.2,55.8,17.6,55.2,17.8,54.6z"
		/>
</g>
<g id="Слой_3">
	<path class="st2" d="M51.3,26.1c-0.3-0.1-0.6,0-0.9,0.1c-0.3,0.2-0.5,0.4-0.5,0.8c-0.2,0.6,0.2,1.3,0.9,1.4
		c4.6,1.3,4.6,2.8,4.6,3.7c0,0.8-1.3,1.8-3.5,2.7c0-0.1-0.1-0.2-0.1-0.4c-0.2-1-0.5-1.9-2.3-2.7c-0.3-0.1-0.6-0.1-0.9,0
		c-0.3,0.1-0.5,0.4-0.6,0.7c-0.2,0.6,0.2,1.2,0.8,1.5c1,0.4,1,0.9,1,1.3c0,0.1,0,0.1,0,0.2c-4.1,1.2-9.7,1.9-15.7,1.9
		c-5.9,0-11.4-0.7-15.6-1.9c0.5-0.6,2.6-1.9,7.3-2.6c0.6-0.1,1.1-0.7,1-1.4c0-0.3-0.2-0.6-0.5-0.8c-0.3-0.2-0.6-0.3-0.9-0.2
		c-2.5,0.4-4.6,1-6.1,1.6c-1.6,0.7-2.7,1.6-3.1,2.6C14,34,12.7,33,12.7,32.2c0-0.2,0.2-1.6,4.3-3c2.9-1,7-1.8,11.5-2.1
		c0.7-0.1,1.2-0.6,1.1-1.3c0-0.3-0.2-0.6-0.4-0.8c-0.2-0.2-0.5-0.3-0.9-0.3c-4.7,0.4-9,1.2-12.1,2.3c-4.9,1.7-5.9,3.8-5.9,5.3
		c0,2,0.4,4,1.1,5.9l1.6,4c0.1,0.3,0.3,0.5,0.6,0.7c0.3,0.1,0.6,0.1,0.9,0c0.3-0.1,0.5-0.3,0.7-0.6c0.1-0.3,0.1-0.6,0-0.9l-1.6-4
		c-0.1-0.3-0.3-0.7-0.4-1c1.2,0.7,2.7,1.3,4.5,1.8c4.4,1.3,10.1,2,16.2,2s11.9-0.7,16.2-2c1.8-0.5,3.3-1.1,4.5-1.8
		c-0.1,0.3-0.2,0.7-0.4,1l-3.2,8.3c-0.2,0.5-0.4,0.9-0.7,1.4c-0.4,0.6-0.2,1.3,0.3,1.7c0.2,0.2,0.5,0.3,0.7,0.3c0.1,0,0.1,0,0.2,0
		c0.3,0,0.6-0.2,0.7-0.5c0.4-0.6,0.7-1.3,1-2l3.2-8.3c0.7-1.9,1.1-3.9,1.1-5.9C57.8,28.5,53.7,26.8,51.3,26.1z"/>
	<path class="st2" d="M31.1,27.2l-2.3,4.6c-0.3,0.6,0,1.3,0.5,1.6c0.6,0.3,1.3,0,1.6-0.5l2.3-4.6c1.8-3.6,4.8-6.4,8.5-8
		c0,0,0,0.1,0,0.1c-2.5,2.2-4.9,5.2-6.5,8.4l-2.3,4.5c-0.2,0.3-0.2,0.6-0.1,0.9c0.1,0.3,0.3,0.5,0.6,0.7c0.3,0.1,0.6,0.2,0.9,0.1
		c0.3-0.1,0.5-0.3,0.7-0.6l2.3-4.5c1.5-2.9,3.6-5.6,5.9-7.6c0.1,0,0.1,0.1,0.2,0.1c0.1,0,0.1,0.1,0.2,0.1l-1.1,2
		c-1,1.9-2.1,3.9-3.2,5.9l-1.7,3.2c-0.3,0.6-0.1,1.3,0.5,1.6c0.6,0.3,1.3,0.1,1.6-0.5l1.7-3.2c1.1-2.1,2.1-4,3.1-5.9l1-1.8
		c0,2.9-0.7,5.7-2.1,8.2l-0.9,1.6c-0.2,0.3-0.2,0.6-0.1,0.9s0.3,0.6,0.6,0.7c0.2,0.1,0.4,0.2,0.6,0.2c0.1,0,0.2,0,0.3,0
		c0.3-0.1,0.6-0.3,0.7-0.6l0.9-1.6c1.8-3.4,2.6-7.2,2.3-11c0.4-0.3,0.7-0.6,0.9-1l7.5-12.2c0.5-0.9,0.7-2,0.5-3
		c-0.2-1-0.9-1.9-1.8-2.4c-0.9-0.5-2-0.7-3-0.5c-1,0.3-1.9,0.9-2.4,1.8L42.1,17c-0.1,0.2-0.3,0.5-0.4,0.7
		C37.1,19.4,33.3,22.8,31.1,27.2z M53.1,5.3c0.2,0,0.4,0.1,0.6,0.2c0.2,0.1,0.3,0.2,0.4,0.4s0.2,0.3,0.3,0.6c0,0.2,0.1,0.4,0,0.6
		c0,0.2-0.1,0.4-0.2,0.6l-7.5,12.2c-0.1,0.2-0.2,0.3-0.4,0.4c-0.2,0.1-0.3,0.2-0.5,0.3c-0.2,0.1-0.4,0.1-0.6,0
		c-0.2,0-0.4-0.1-0.6-0.2c-0.2-0.1-0.3-0.2-0.4-0.4c-0.1-0.2-0.2-0.4-0.3-0.6c0-0.2-0.1-0.4,0-0.6c0-0.2,0.1-0.4,0.2-0.6L51.5,6
		c0.1-0.2,0.2-0.3,0.4-0.4c0.2-0.1,0.3-0.2,0.5-0.3c0.1,0,0.2,0,0.4,0C52.9,5.2,53,5.3,53.1,5.3z"/>
	<path class="st2" d="M1.8,45.5c0.1,0.1,0.3,0.1,0.5,0.1c0.2,0,0.3,0,0.5-0.1c0.5-0.3,0.8-0.9,0.7-1.6c0-0.2-0.1-0.4-0.1-0.7v-1.1
		c0-9.7,1.5-19.3,4.5-28.5h20c-0.7,2.3-1.4,4.7-1.9,7c-0.1,0.3,0,0.6,0.1,0.9s0.4,0.5,0.8,0.5c0.6,0.1,1.3-0.3,1.4-0.9
		c0.6-2.5,1.3-5,2.1-7.5h1.8c1.1,0,2.1-0.4,2.8-1.2c0.8-0.8,1.2-1.8,1.2-2.8V6.8c0-0.2,0-0.3-0.1-0.5S36,6.1,35.9,6
		c-0.1-0.1-0.2-0.2-0.4-0.3S35.2,5.6,35,5.6h-4.4c0.1-0.8,0.4-1.6,1-2.2c0.7-0.7,1.5-1,2.5-1h0.2c0.8,0,1.5,0.3,2.1,0.7
		c0.6,0.5,1,1.1,1.3,1.9l1,3.5c0.2,0.9,0.5,1.8,0.7,2.7c0.2,0.6,0.8,1,1.4,0.9c0.3-0.1,0.6-0.3,0.7-0.5c0.2-0.3,0.2-0.6,0.1-0.9
		c-0.2-0.9-0.5-1.9-0.7-2.8l-1-3.5c-0.3-1.2-1.1-2.3-2.1-3.1c-1-0.8-2.3-1.2-3.6-1.2H8.8c-1.6,0-3,0.6-4.1,1.7S2.9,4.3,2.9,5.9v3.8
		c0,0.8,0.3,1.7,0.8,2.4c0.5,0.6,1.1,1.1,1.8,1.4c-3,9.3-4.5,19-4.5,28.8v1.1c0,0.5,0.1,1.1,0.2,1.6C1.3,45.1,1.5,45.3,1.8,45.5z
		 M33.8,9.6c0,0.4-0.2,0.9-0.5,1.2c-0.6,0.6-1.7,0.6-2.3,0c-0.3-0.3-0.5-0.7-0.5-1.2V8h3.2L33.8,9.6L33.8,9.6z M28.5,11.2H6.9
		c-0.4,0-0.8-0.2-1.2-0.5C5.4,10.5,5.3,10,5.3,9.6V5.9c0-0.9,0.4-1.8,1-2.5s1.5-1,2.5-1h20.6c-0.8,1-1.2,2.2-1.2,3.5v3.8
		C28.2,10.2,28.3,10.7,28.5,11.2z"/>
	<path class="st2" d="M48.1,49.2c-0.4-0.3-0.8-0.6-1.3-0.8c-0.5-0.2-1-0.2-1.5-0.2l-0.7,0.1c-0.6-0.9-1.4-1.7-2.4-2.3
		c-1-0.6-2.2-0.9-3.3-0.9H11.6c-1.2,0-2.3,0.3-3.3,0.9c-1,0.5-1.8,1.3-2.4,2.3l-0.7-0.1c-0.5-0.1-1,0-1.5,0.2s-0.9,0.4-1.3,0.7
		c-0.4,0.3-0.7,0.7-0.9,1.2c-0.2,0.5-0.3,1-0.4,1.5c0,0.5,0.1,1,0.2,1.5s0.5,0.9,0.8,1.3c0.3,0.4,0.8,0.7,1.2,0.9
		c0.6,0.3,1.2,0.4,1.8,0.3l0.7-0.1c0.6,0.9,1.4,1.7,2.4,2.3c1,0.6,2.2,0.9,3.3,0.9h27.2c0,0,0,0,0,0c0.9,0,1.8-0.2,2.6-0.5
		c0.8-0.3,1.6-0.8,2.2-1.5c0.3-0.4,0.7-0.7,0.9-1.1l0.7,0.1c0.9,0.1,1.7-0.2,2.5-0.6c0.6-0.4,1.1-1,1.4-1.7c0.3-0.7,0.3-1.5,0.2-2.2
		C49,50.3,48.7,49.7,48.1,49.2z M45.4,50.6c0.2,0,0.4,0,0.6,0.1s0.3,0.2,0.5,0.3c0.1,0.1,0.3,0.3,0.3,0.4c0.1,0.2,0.1,0.4,0.1,0.5
		c0,0.2,0,0.4-0.1,0.5c-0.1,0.2-0.2,0.3-0.3,0.5c-0.1,0.1-0.3,0.2-0.5,0.3c-0.2,0.1-0.4,0.1-0.7,0.1h0
		C45.6,52.4,45.6,51.5,45.4,50.6z M4.8,50.6c0,0,0.1,0,0.1,0l5.6,0.5c0.2,0,0.4,0.1,0.6,0.3c0.1,0.2,0.2,0.4,0.2,0.6
		s-0.1,0.4-0.2,0.6s-0.3,0.3-0.6,0.3l-5.6,0.5c-0.2,0-0.4,0-0.6-0.1C4.2,53.2,4,53.1,3.9,53s-0.3-0.3-0.3-0.4
		c-0.1-0.2-0.1-0.4-0.1-0.5c0-0.2,0-0.4,0.1-0.5c0.1-0.2,0.2-0.3,0.3-0.5c0.1-0.1,0.3-0.2,0.5-0.3C4.4,50.6,4.6,50.6,4.8,50.6z
		 M10.7,55.2c0.8-0.1,1.6-0.4,2.1-1c0.5-0.6,0.8-1.4,0.8-2.2s-0.3-1.6-0.8-2.2c-0.6-0.6-1.3-1-2.1-1l-2-0.2c0.4-0.4,1-0.7,1.6-0.8
		c0.7-0.2,1.4-0.3,2.2-0.1s1.4,0.5,1.9,0.9c0.6,0.5,1,1.1,1.3,1.7c0.3,0.7,0.4,1.4,0.3,2.1c-0.1,0.7-0.3,1.4-0.7,2
		c-0.4,0.6-1,1.1-1.6,1.5c-0.6,0.3-1.4,0.5-2.1,0.5c-0.6,0-1.2-0.1-1.8-0.4c-0.4-0.2-0.8-0.4-1.1-0.7L10.7,55.2z M17.8,54.6
		c0.4-0.8,0.5-1.7,0.5-2.6s-0.2-1.8-0.5-2.6c-0.3-0.7-0.6-1.3-1.1-1.8h22c0.9,0,1.7,0.3,2.5,0.8c0.7,0.5,1.3,1.2,1.6,2
		c0.3,0.8,0.4,1.7,0.3,2.6c-0.2,0.9-0.6,1.7-1.2,2.3c-0.4,0.4-0.9,0.7-1.4,1s-1.1,0.3-1.7,0.3h-22C17.2,55.8,17.6,55.2,17.8,54.6z"
		/>
</g>
</svg>
