<?xml version="1.0" encoding="utf-8"?>
<!-- Generator: Adobe Illustrator 21.1.0, SVG Export Plug-In . SVG Version: 6.00 Build 0)  -->
<svg version="1.1" xmlns="http://www.w3.org/2000/svg" xmlns:xlink="http://www.w3.org/1999/xlink" x="0px" y="0px"
	 viewBox="0 0 60 56" style="enable-background:new 0 0 60 56;" xml:space="preserve">
<style type="text/css">
	.st0{display:none;}
	.st1{display:inline;}
	.st2{clip-path:url(#SVGID_2_);}
	.st3{fill:#F37321;}
	.st4{fill:none;stroke:#F37321;stroke-width:0.2;}
	.st5{clip-path:url(#SVGID_4_);}
	.st6{fill:#FFFFFF;}
	.st7{fill:none;stroke:#FFFFFF;stroke-width:0.1;}
	.st8{fill:none;stroke:#FFFFFF;stroke-width:0.2;}
</style>
<g id="Слой_1" class="st0">
	<g class="st1">
		<defs>
			<rect id="SVGID_1_" width="60" height="56"/>
		</defs>
		<clipPath id="SVGID_2_">
			<use xlink:href="#SVGID_1_"  style="overflow:visible;"/>
		</clipPath>
		<g class="st2">
			<path class="st3" d="M32.5,5.7c-0.1-0.2-0.2-0.3-0.3-0.5C32,5.1,31.8,5,31.6,5l-3.3-0.5l-1.5-2.9c-0.1-0.2-0.2-0.3-0.4-0.4
				C26.4,1.1,26.2,1,26,1s-0.4,0.1-0.5,0.1c-0.2,0.1-0.3,0.2-0.4,0.4l-1.5,2.9L20.4,5c-0.2,0-0.4,0.1-0.5,0.2
				c-0.1,0.1-0.2,0.3-0.3,0.5c-0.1,0.2-0.1,0.4,0,0.5c0,0.2,0.1,0.3,0.3,0.5L22.2,9l-0.6,3.2c0,0.2,0,0.4,0.1,0.5
				c0.1,0.2,0.2,0.3,0.3,0.4c0.2,0.1,0.3,0.2,0.5,0.2c0.2,0,0.4,0,0.5-0.1l2.9-1.5l2.9,1.5c0.2,0.1,0.4,0.1,0.5,0.1s0.4-0.1,0.5-0.2
				c0.2-0.1,0.3-0.3,0.3-0.4c0.1-0.2,0.1-0.4,0.1-0.5L29.8,9l2.4-2.3c0.1-0.1,0.2-0.3,0.3-0.5C32.5,6,32.5,5.8,32.5,5.7z M28.1,7.9
				c-0.1,0.1-0.2,0.3-0.3,0.4c-0.1,0.2-0.1,0.3,0,0.5l0.3,1.8l-1.6-0.8c-0.1-0.1-0.3-0.1-0.5-0.1c-0.2,0-0.3,0-0.5,0.1l-1.6,0.8
				l0.3-1.8c0-0.2,0-0.3,0-0.5c-0.1-0.2-0.1-0.3-0.3-0.4l-1.3-1.2l1.8-0.3c0.2,0,0.3-0.1,0.4-0.2C25,6.1,25.1,6,25.2,5.9L26,4.2
				l0.8,1.6C26.9,6,27,6.1,27.1,6.2c0.1,0.1,0.3,0.2,0.4,0.2l1.8,0.3L28.1,7.9z"/>
			<path class="st3" d="M46,9.7c-0.1-0.2-0.2-0.3-0.3-0.5C45.5,9.1,45.3,9,45.1,9l-3.3-0.5l-1.5-2.9c-0.1-0.2-0.2-0.3-0.4-0.4
				C39.9,5.1,39.7,5,39.5,5S39.1,5.1,39,5.1c-0.2,0.1-0.3,0.2-0.4,0.4l-1.5,2.9L33.9,9c-0.2,0-0.4,0.1-0.5,0.2
				c-0.1,0.1-0.2,0.3-0.3,0.5C33,9.8,33,10,33,10.2c0,0.2,0.1,0.3,0.3,0.5l2.4,2.3l-0.6,3.2c0,0.2,0,0.4,0.1,0.5s0.2,0.3,0.3,0.4
				c0.2,0.1,0.3,0.2,0.5,0.2c0.2,0,0.4,0,0.5-0.1l2.9-1.5l2.9,1.5c0.2,0.1,0.4,0.1,0.5,0.1c0.2,0,0.4-0.1,0.5-0.2
				c0.2-0.1,0.3-0.3,0.3-0.4s0.1-0.4,0.1-0.5L43.3,13l2.4-2.3c0.1-0.1,0.2-0.3,0.3-0.5C46,10,46,9.8,46,9.7z M41.6,11.9
				c-0.1,0.1-0.2,0.3-0.3,0.4c-0.1,0.2-0.1,0.3,0,0.5l0.3,1.8L40,13.7c-0.1-0.1-0.3-0.1-0.5-0.1c-0.2,0-0.3,0-0.5,0.1l-1.6,0.8
				l0.3-1.8c0-0.2,0-0.3,0-0.5c-0.1-0.2-0.1-0.3-0.3-0.4l-1.3-1.2l1.8-0.3c0.2,0,0.3-0.1,0.4-0.2s0.2-0.2,0.3-0.4l0.8-1.6l0.8,1.6
				c0.1,0.1,0.2,0.3,0.3,0.4s0.3,0.2,0.4,0.2l1.8,0.3L41.6,11.9z"/>
			<path class="st3" d="M19,10.3c-0.1-0.2-0.2-0.3-0.3-0.5c-0.1-0.1-0.3-0.2-0.5-0.2l-3.3-0.5l-1.5-2.9C13.3,6,13.2,5.9,13,5.8
				c-0.2-0.1-0.3-0.1-0.5-0.1S12.1,5.7,12,5.8c-0.2,0.1-0.3,0.2-0.4,0.4l-1.5,2.9L6.9,9.6c-0.2,0-0.4,0.1-0.5,0.2
				C6.2,9.9,6.1,10.1,6,10.3C6,10.5,6,10.6,6,10.8c0,0.2,0.1,0.3,0.3,0.5l2.4,2.3l-0.6,3.2c0,0.2,0,0.4,0.1,0.5s0.2,0.3,0.3,0.4
				C8.7,17.9,8.8,18,9,18c0.2,0,0.4,0,0.5-0.1l2.9-1.5l2.9,1.5C15.6,18,15.8,18,16,18c0.2,0,0.4-0.1,0.5-0.2
				c0.2-0.1,0.3-0.3,0.3-0.4s0.1-0.4,0.1-0.5l-0.6-3.2l2.4-2.3c0.1-0.1,0.2-0.3,0.3-0.5C19,10.6,19,10.5,19,10.3z M14.6,12.5
				c-0.1,0.1-0.2,0.3-0.3,0.4c-0.1,0.2-0.1,0.3,0,0.5l0.3,1.8L13,14.3c-0.1-0.1-0.3-0.1-0.5-0.1s-0.3,0-0.5,0.1l-1.6,0.8l0.3-1.8
				c0-0.2,0-0.3,0-0.5c-0.1-0.2-0.1-0.3-0.3-0.4l-1.3-1.2l1.8-0.3c0.2,0,0.3-0.1,0.4-0.2c0.1-0.1,0.2-0.2,0.3-0.4l0.8-1.6l0.8,1.6
				c0.1,0.1,0.2,0.3,0.3,0.4s0.3,0.2,0.4,0.2l1.8,0.3L14.6,12.5z"/>
			<path class="st3" d="M59,39h-6c-0.2,0-0.4,0.1-0.5,0.2s-0.3,0.3-0.4,0.4c-0.1-0.1-0.2-0.3-0.2-0.4l-2-4.6c0,0,0,0,0,0l-5-11
				c-0.1-0.1-0.1-0.2-0.2-0.3c-0.1-0.1-0.2-0.2-0.3-0.2c-0.1,0-0.3-0.1-0.4-0.1c-0.1,0-0.3,0-0.4,0.1c-1.2,0.6-2,1.4-2.4,2.3
				c-3.5-2.8-7.7-4.6-12.1-5.2V18h1c0.3,0,0.5-0.1,0.7-0.3c0.2-0.2,0.3-0.4,0.3-0.7s-0.1-0.5-0.3-0.7S30.3,16,30,16h-8
				c-0.3,0-0.5,0.1-0.7,0.3S21,16.7,21,17s0.1,0.5,0.3,0.7c0.2,0.2,0.4,0.3,0.7,0.3h1v2.2C11.5,21.6,2.5,31.2,2,43H1
				c-0.3,0-0.5,0.1-0.7,0.3C0.1,43.5,0,43.7,0,44v2c0,0.8,0.3,1.6,0.9,2.1C1.4,48.7,2.2,49,3,49h27.8c0.4,0.4,0.9,0.7,1.4,0.9
				C32,50.3,32,50.8,32,51.3c0.1,0.5,0.2,1,0.5,1.4c0.3,0.4,0.6,0.7,1.1,1C34,53.9,34.5,54,35,54h17c0,0.3,0.1,0.5,0.3,0.7
				c0.2,0.2,0.4,0.3,0.7,0.3h6c0.3,0,0.5-0.1,0.7-0.3c0.2-0.2,0.3-0.4,0.3-0.7V40c0-0.3-0.1-0.5-0.3-0.7S59.3,39,59,39z M25,18h2v2
				c-0.3,0-0.7,0-1,0c-0.3,0-0.7,0-1,0V18z M26,22c5.4,0,10.6,2,14.6,5.6c0,1.7,0.6,3.4,1.1,4.8c0.1,0.3,0.2,0.7,0.3,1
				c0.5,1.4,0.4,2.3,0.3,2.7H33c-0.6,0-1.1,0.2-1.6,0.5c-0.5,0.3-0.9,0.8-1.1,1.3s-0.3,1.1-0.2,1.7c0.1,0.6,0.3,1.1,0.7,1.5
				c-0.5,0.5-0.8,1.3-0.8,2H4C4.5,31.3,14.2,22,26,22z M32,39c0-0.3,0.1-0.5,0.3-0.7c0.2-0.2,0.4-0.3,0.7-0.3h8
				c0.3,0,0.5,0.1,0.7,0.3S42,38.7,42,39s-0.1,0.5-0.3,0.7C41.5,39.9,41.3,40,41,40h-8c-0.3,0-0.5-0.1-0.7-0.3
				C32.1,39.5,32,39.3,32,39z M32,43c0-0.3,0.1-0.5,0.3-0.7c0.2-0.2,0.4-0.3,0.7-0.3h8c0.3,0,0.5,0.1,0.7,0.3S42,42.7,42,43
				s-0.1,0.5-0.3,0.7C41.5,43.9,41.3,44,41,44h-8c-0.3,0-0.5-0.1-0.7-0.3C32.1,43.5,32,43.3,32,43z M3,47c-0.3,0-0.5-0.1-0.7-0.3
				S2,46.3,2,46v-1h28.8c-0.5,0.5-0.8,1.3-0.8,2H3z M33,46h8c0.3,0,0.5,0.1,0.7,0.3S42,46.7,42,47s-0.1,0.5-0.3,0.7
				C41.5,47.9,41.3,48,41,48h-8c-0.3,0-0.5-0.1-0.7-0.3C32.1,47.5,32,47.3,32,47s0.1-0.5,0.3-0.7S32.7,46,33,46z M35,52
				c-0.3,0-0.5-0.1-0.7-0.3C34.1,51.5,34,51.3,34,51s0.1-0.5,0.3-0.7S34.7,50,35,50h6c0.3,0,0.5,0.1,0.7,0.3S42,50.7,42,51
				s-0.1,0.5-0.3,0.7C41.5,51.9,41.3,52,41,52H35z M43.8,52c0.2-0.5,0.2-1.1,0.1-1.6c-0.1-0.5-0.3-1-0.7-1.4c0.5-0.5,0.8-1.3,0.8-2
				s-0.3-1.5-0.8-2c0.1-0.2,0.3-0.3,0.4-0.5c1.2,0.6,3.3,1.5,5.4,1.5c0.3,0,0.5-0.1,0.7-0.3c0.2-0.2,0.3-0.4,0.3-0.7
				s-0.1-0.5-0.3-0.7S49.3,44,49,44c-2.1,0-4.2-1.1-5.1-1.6c-0.1-0.5-0.4-1-0.7-1.4c0.4-0.4,0.7-1,0.7-1.6c0.1-0.6,0-1.2-0.3-1.7
				c0.2-0.2,1.4-1.6,0.2-5c-0.1-0.3-0.2-0.7-0.4-1c-1-2.8-1.6-4.9,0-6.2l4.5,9.9l2,4.6c0.4,0.9,1.1,1.7,2,2.3V52H43.8z M58,53h-4V41
				h4V53z"/>
			<path class="st4" d="M32.5,5.7c-0.1-0.2-0.2-0.3-0.3-0.5C32,5.1,31.8,5,31.6,5l-3.3-0.5l-1.5-2.9c-0.1-0.2-0.2-0.3-0.4-0.4
				C26.4,1.1,26.2,1,26,1s-0.4,0.1-0.5,0.1c-0.2,0.1-0.3,0.2-0.4,0.4l-1.5,2.9L20.4,5c-0.2,0-0.4,0.1-0.5,0.2
				c-0.1,0.1-0.2,0.3-0.3,0.5c-0.1,0.2-0.1,0.4,0,0.5c0,0.2,0.1,0.3,0.3,0.5L22.2,9l-0.6,3.2c0,0.2,0,0.4,0.1,0.5
				c0.1,0.2,0.2,0.3,0.3,0.4c0.2,0.1,0.3,0.2,0.5,0.2c0.2,0,0.4,0,0.5-0.1l2.9-1.5l2.9,1.5c0.2,0.1,0.4,0.1,0.5,0.1s0.4-0.1,0.5-0.2
				c0.2-0.1,0.3-0.3,0.3-0.4c0.1-0.2,0.1-0.4,0.1-0.5L29.8,9l2.4-2.3c0.1-0.1,0.2-0.3,0.3-0.5C32.5,6,32.5,5.8,32.5,5.7z M28.1,7.9
				c-0.1,0.1-0.2,0.3-0.3,0.4c-0.1,0.2-0.1,0.3,0,0.5l0.3,1.8l-1.6-0.8c-0.1-0.1-0.3-0.1-0.5-0.1c-0.2,0-0.3,0-0.5,0.1l-1.6,0.8
				l0.3-1.8c0-0.2,0-0.3,0-0.5c-0.1-0.2-0.1-0.3-0.3-0.4l-1.3-1.2l1.8-0.3c0.2,0,0.3-0.1,0.4-0.2C25,6.1,25.1,6,25.2,5.9L26,4.2
				l0.8,1.6C26.9,6,27,6.1,27.1,6.2c0.1,0.1,0.3,0.2,0.4,0.2l1.8,0.3L28.1,7.9z"/>
			<path class="st4" d="M46,9.7c-0.1-0.2-0.2-0.3-0.3-0.5C45.5,9.1,45.3,9,45.1,9l-3.3-0.5l-1.5-2.9c-0.1-0.2-0.2-0.3-0.4-0.4
				C39.9,5.1,39.7,5,39.5,5S39.1,5.1,39,5.1c-0.2,0.1-0.3,0.2-0.4,0.4l-1.5,2.9L33.9,9c-0.2,0-0.4,0.1-0.5,0.2
				c-0.1,0.1-0.2,0.3-0.3,0.5C33,9.8,33,10,33,10.2c0,0.2,0.1,0.3,0.3,0.5l2.4,2.3l-0.6,3.2c0,0.2,0,0.4,0.1,0.5s0.2,0.3,0.3,0.4
				c0.2,0.1,0.3,0.2,0.5,0.2c0.2,0,0.4,0,0.5-0.1l2.9-1.5l2.9,1.5c0.2,0.1,0.4,0.1,0.5,0.1c0.2,0,0.4-0.1,0.5-0.2
				c0.2-0.1,0.3-0.3,0.3-0.4s0.1-0.4,0.1-0.5L43.3,13l2.4-2.3c0.1-0.1,0.2-0.3,0.3-0.5C46,10,46,9.8,46,9.7z M41.6,11.9
				c-0.1,0.1-0.2,0.3-0.3,0.4c-0.1,0.2-0.1,0.3,0,0.5l0.3,1.8L40,13.7c-0.1-0.1-0.3-0.1-0.5-0.1c-0.2,0-0.3,0-0.5,0.1l-1.6,0.8
				l0.3-1.8c0-0.2,0-0.3,0-0.5c-0.1-0.2-0.1-0.3-0.3-0.4l-1.3-1.2l1.8-0.3c0.2,0,0.3-0.1,0.4-0.2s0.2-0.2,0.3-0.4l0.8-1.6l0.8,1.6
				c0.1,0.1,0.2,0.3,0.3,0.4s0.3,0.2,0.4,0.2l1.8,0.3L41.6,11.9z"/>
			<path class="st4" d="M19,10.3c-0.1-0.2-0.2-0.3-0.3-0.5c-0.1-0.1-0.3-0.2-0.5-0.2l-3.3-0.5l-1.5-2.9C13.3,6,13.2,5.9,13,5.8
				c-0.2-0.1-0.3-0.1-0.5-0.1S12.1,5.7,12,5.8c-0.2,0.1-0.3,0.2-0.4,0.4l-1.5,2.9L6.9,9.6c-0.2,0-0.4,0.1-0.5,0.2
				C6.2,9.9,6.1,10.1,6,10.3C6,10.5,6,10.6,6,10.8c0,0.2,0.1,0.3,0.3,0.5l2.4,2.3l-0.6,3.2c0,0.2,0,0.4,0.1,0.5s0.2,0.3,0.3,0.4
				C8.7,17.9,8.8,18,9,18c0.2,0,0.4,0,0.5-0.1l2.9-1.5l2.9,1.5C15.6,18,15.8,18,16,18c0.2,0,0.4-0.1,0.5-0.2
				c0.2-0.1,0.3-0.3,0.3-0.4s0.1-0.4,0.1-0.5l-0.6-3.2l2.4-2.3c0.1-0.1,0.2-0.3,0.3-0.5C19,10.6,19,10.5,19,10.3z M14.6,12.5
				c-0.1,0.1-0.2,0.3-0.3,0.4c-0.1,0.2-0.1,0.3,0,0.5l0.3,1.8L13,14.3c-0.1-0.1-0.3-0.1-0.5-0.1s-0.3,0-0.5,0.1l-1.6,0.8l0.3-1.8
				c0-0.2,0-0.3,0-0.5c-0.1-0.2-0.1-0.3-0.3-0.4l-1.3-1.2l1.8-0.3c0.2,0,0.3-0.1,0.4-0.2c0.1-0.1,0.2-0.2,0.3-0.4l0.8-1.6l0.8,1.6
				c0.1,0.1,0.2,0.3,0.3,0.4s0.3,0.2,0.4,0.2l1.8,0.3L14.6,12.5z"/>
			<path class="st4" d="M59,39h-6c-0.2,0-0.4,0.1-0.5,0.2s-0.3,0.3-0.4,0.4c-0.1-0.1-0.2-0.3-0.2-0.4l-2-4.6c0,0,0,0,0,0l-5-11
				c-0.1-0.1-0.1-0.2-0.2-0.3c-0.1-0.1-0.2-0.2-0.3-0.2c-0.1,0-0.3-0.1-0.4-0.1c-0.1,0-0.3,0-0.4,0.1c-1.2,0.6-2,1.4-2.4,2.3
				c-3.5-2.8-7.7-4.6-12.1-5.2V18h1c0.3,0,0.5-0.1,0.7-0.3c0.2-0.2,0.3-0.4,0.3-0.7s-0.1-0.5-0.3-0.7S30.3,16,30,16h-8
				c-0.3,0-0.5,0.1-0.7,0.3S21,16.7,21,17s0.1,0.5,0.3,0.7c0.2,0.2,0.4,0.3,0.7,0.3h1v2.2C11.5,21.6,2.5,31.2,2,43H1
				c-0.3,0-0.5,0.1-0.7,0.3C0.1,43.5,0,43.7,0,44v2c0,0.8,0.3,1.6,0.9,2.1C1.4,48.7,2.2,49,3,49h27.8c0.4,0.4,0.9,0.7,1.4,0.9
				C32,50.3,32,50.8,32,51.3c0.1,0.5,0.2,1,0.5,1.4c0.3,0.4,0.6,0.7,1.1,1C34,53.9,34.5,54,35,54h17c0,0.3,0.1,0.5,0.3,0.7
				c0.2,0.2,0.4,0.3,0.7,0.3h6c0.3,0,0.5-0.1,0.7-0.3c0.2-0.2,0.3-0.4,0.3-0.7V40c0-0.3-0.1-0.5-0.3-0.7S59.3,39,59,39z M25,18h2v2
				c-0.3,0-0.7,0-1,0c-0.3,0-0.7,0-1,0V18z M26,22c5.4,0,10.6,2,14.6,5.6c0,1.7,0.6,3.4,1.1,4.8c0.1,0.3,0.2,0.7,0.3,1
				c0.5,1.4,0.4,2.3,0.3,2.7H33c-0.6,0-1.1,0.2-1.6,0.5c-0.5,0.3-0.9,0.8-1.1,1.3s-0.3,1.1-0.2,1.7c0.1,0.6,0.3,1.1,0.7,1.5
				c-0.5,0.5-0.8,1.3-0.8,2H4C4.5,31.3,14.2,22,26,22z M32,39c0-0.3,0.1-0.5,0.3-0.7c0.2-0.2,0.4-0.3,0.7-0.3h8
				c0.3,0,0.5,0.1,0.7,0.3S42,38.7,42,39s-0.1,0.5-0.3,0.7C41.5,39.9,41.3,40,41,40h-8c-0.3,0-0.5-0.1-0.7-0.3
				C32.1,39.5,32,39.3,32,39z M32,43c0-0.3,0.1-0.5,0.3-0.7c0.2-0.2,0.4-0.3,0.7-0.3h8c0.3,0,0.5,0.1,0.7,0.3S42,42.7,42,43
				s-0.1,0.5-0.3,0.7C41.5,43.9,41.3,44,41,44h-8c-0.3,0-0.5-0.1-0.7-0.3C32.1,43.5,32,43.3,32,43z M3,47c-0.3,0-0.5-0.1-0.7-0.3
				S2,46.3,2,46v-1h28.8c-0.5,0.5-0.8,1.3-0.8,2H3z M33,46h8c0.3,0,0.5,0.1,0.7,0.3S42,46.7,42,47s-0.1,0.5-0.3,0.7
				C41.5,47.9,41.3,48,41,48h-8c-0.3,0-0.5-0.1-0.7-0.3C32.1,47.5,32,47.3,32,47s0.1-0.5,0.3-0.7S32.7,46,33,46z M35,52
				c-0.3,0-0.5-0.1-0.7-0.3C34.1,51.5,34,51.3,34,51s0.1-0.5,0.3-0.7S34.7,50,35,50h6c0.3,0,0.5,0.1,0.7,0.3S42,50.7,42,51
				s-0.1,0.5-0.3,0.7C41.5,51.9,41.3,52,41,52H35z M43.8,52c0.2-0.5,0.2-1.1,0.1-1.6c-0.1-0.5-0.3-1-0.7-1.4c0.5-0.5,0.8-1.3,0.8-2
				s-0.3-1.5-0.8-2c0.1-0.2,0.3-0.3,0.4-0.5c1.2,0.6,3.3,1.5,5.4,1.5c0.3,0,0.5-0.1,0.7-0.3c0.2-0.2,0.3-0.4,0.3-0.7
				s-0.1-0.5-0.3-0.7S49.3,44,49,44c-2.1,0-4.2-1.1-5.1-1.6c-0.1-0.5-0.4-1-0.7-1.4c0.4-0.4,0.7-1,0.7-1.6c0.1-0.6,0-1.2-0.3-1.7
				c0.2-0.2,1.4-1.6,0.2-5c-0.1-0.3-0.2-0.7-0.4-1c-1-2.8-1.6-4.9,0-6.2l4.5,9.9l2,4.6c0.4,0.9,1.1,1.7,2,2.3V52H43.8z M58,53h-4V41
				h4V53z"/>
		</g>
	</g>
</g>
<g id="Слой_4">
	<g>
		<defs>
			<rect id="SVGID_3_" x="0" y="0" width="60" height="56"/>
		</defs>
		<clipPath id="SVGID_4_">
			<use xlink:href="#SVGID_3_"  style="overflow:visible;"/>
		</clipPath>
		<g class="st5">
			<path class="st6" d="M32.5,5.7c-0.1-0.2-0.2-0.3-0.3-0.5C32,5.1,31.8,5,31.6,5l-3.3-0.5l-1.5-2.9c-0.1-0.2-0.2-0.3-0.4-0.4
				C26.4,1.1,26.2,1,26,1s-0.4,0.1-0.5,0.1c-0.2,0.1-0.3,0.2-0.4,0.4l-1.5,2.9L20.4,5c-0.2,0-0.4,0.1-0.5,0.2
				c-0.1,0.1-0.2,0.3-0.3,0.5c-0.1,0.2-0.1,0.4,0,0.5c0,0.2,0.1,0.3,0.3,0.5L22.2,9l-0.6,3.2c0,0.2,0,0.4,0.1,0.5
				c0.1,0.2,0.2,0.3,0.3,0.4c0.2,0.1,0.3,0.2,0.5,0.2c0.2,0,0.4,0,0.5-0.1l2.9-1.5l2.9,1.5c0.2,0.1,0.4,0.1,0.5,0.1s0.4-0.1,0.5-0.2
				c0.2-0.1,0.3-0.3,0.3-0.4c0.1-0.2,0.1-0.4,0.1-0.5L29.8,9l2.4-2.3c0.1-0.1,0.2-0.3,0.3-0.5C32.5,6,32.5,5.8,32.5,5.7z M28.1,7.9
				c-0.1,0.1-0.2,0.3-0.3,0.4c-0.1,0.2-0.1,0.3,0,0.5l0.3,1.8l-1.6-0.8c-0.1-0.1-0.3-0.1-0.5-0.1c-0.2,0-0.3,0-0.5,0.1l-1.6,0.8
				l0.3-1.8c0-0.2,0-0.3,0-0.5c-0.1-0.2-0.1-0.3-0.3-0.4l-1.3-1.2l1.8-0.3c0.2,0,0.3-0.1,0.4-0.2C25,6.1,25.1,6,25.2,5.9L26,4.2
				l0.8,1.6C26.9,6,27,6.1,27.1,6.2c0.1,0.1,0.3,0.2,0.4,0.2l1.8,0.3L28.1,7.9z"/>
			<path class="st6" d="M46,9.7c-0.1-0.2-0.2-0.3-0.3-0.5C45.5,9.1,45.3,9,45.1,9l-3.3-0.5l-1.5-2.9c-0.1-0.2-0.2-0.3-0.4-0.4
				C39.9,5.1,39.7,5,39.5,5S39.1,5.1,39,5.1c-0.2,0.1-0.3,0.2-0.4,0.4l-1.5,2.9L33.9,9c-0.2,0-0.4,0.1-0.5,0.2
				c-0.1,0.1-0.2,0.3-0.3,0.5C33,9.8,33,10,33,10.2c0,0.2,0.1,0.3,0.3,0.5l2.4,2.3l-0.6,3.2c0,0.2,0,0.4,0.1,0.5s0.2,0.3,0.3,0.4
				c0.2,0.1,0.3,0.2,0.5,0.2c0.2,0,0.4,0,0.5-0.1l2.9-1.5l2.9,1.5c0.2,0.1,0.4,0.1,0.5,0.1c0.2,0,0.4-0.1,0.5-0.2
				c0.2-0.1,0.3-0.3,0.3-0.4s0.1-0.4,0.1-0.5L43.3,13l2.4-2.3c0.1-0.1,0.2-0.3,0.3-0.5C46,10,46,9.8,46,9.7z M41.6,11.9
				c-0.1,0.1-0.2,0.3-0.3,0.4c-0.1,0.2-0.1,0.3,0,0.5l0.3,1.8L40,13.7c-0.1-0.1-0.3-0.1-0.5-0.1c-0.2,0-0.3,0-0.5,0.1l-1.6,0.8
				l0.3-1.8c0-0.2,0-0.3,0-0.5c-0.1-0.2-0.1-0.3-0.3-0.4l-1.3-1.2l1.8-0.3c0.2,0,0.3-0.1,0.4-0.2s0.2-0.2,0.3-0.4l0.8-1.6l0.8,1.6
				c0.1,0.1,0.2,0.3,0.3,0.4s0.3,0.2,0.4,0.2l1.8,0.3L41.6,11.9z"/>
			<path class="st6" d="M19,10.3c-0.1-0.2-0.2-0.3-0.3-0.5c-0.1-0.1-0.3-0.2-0.5-0.2l-3.3-0.5l-1.5-2.9C13.3,6,13.2,5.9,13,5.8
				c-0.2-0.1-0.3-0.1-0.5-0.1S12.1,5.7,12,5.8c-0.2,0.1-0.3,0.2-0.4,0.4l-1.5,2.9L6.9,9.6c-0.2,0-0.4,0.1-0.5,0.2
				C6.2,9.9,6.1,10.1,6,10.3C6,10.5,6,10.6,6,10.8c0,0.2,0.1,0.3,0.3,0.5l2.4,2.3l-0.6,3.2c0,0.2,0,0.4,0.1,0.5s0.2,0.3,0.3,0.4
				C8.7,17.9,8.8,18,9,18c0.2,0,0.4,0,0.5-0.1l2.9-1.5l2.9,1.5C15.6,18,15.8,18,16,18c0.2,0,0.4-0.1,0.5-0.2
				c0.2-0.1,0.3-0.3,0.3-0.4s0.1-0.4,0.1-0.5l-0.6-3.2l2.4-2.3c0.1-0.1,0.2-0.3,0.3-0.5C19,10.6,19,10.5,19,10.3z M14.6,12.5
				c-0.1,0.1-0.2,0.3-0.3,0.4c-0.1,0.2-0.1,0.3,0,0.5l0.3,1.8L13,14.3c-0.1-0.1-0.3-0.1-0.5-0.1s-0.3,0-0.5,0.1l-1.6,0.8l0.3-1.8
				c0-0.2,0-0.3,0-0.5c-0.1-0.2-0.1-0.3-0.3-0.4l-1.3-1.2l1.8-0.3c0.2,0,0.3-0.1,0.4-0.2c0.1-0.1,0.2-0.2,0.3-0.4l0.8-1.6l0.8,1.6
				c0.1,0.1,0.2,0.3,0.3,0.4s0.3,0.2,0.4,0.2l1.8,0.3L14.6,12.5z"/>
			<path class="st6" d="M59,39h-6c-0.2,0-0.4,0.1-0.5,0.2s-0.3,0.3-0.4,0.4c-0.1-0.1-0.2-0.3-0.2-0.4l-2-4.6c0,0,0,0,0,0l-5-11
				c-0.1-0.1-0.1-0.2-0.2-0.3c-0.1-0.1-0.2-0.2-0.3-0.2c-0.1,0-0.3-0.1-0.4-0.1c-0.1,0-0.3,0-0.4,0.1c-1.2,0.6-2,1.4-2.4,2.3
				c-3.5-2.8-7.7-4.6-12.1-5.2V18h1c0.3,0,0.5-0.1,0.7-0.3c0.2-0.2,0.3-0.4,0.3-0.7s-0.1-0.5-0.3-0.7S30.3,16,30,16h-8
				c-0.3,0-0.5,0.1-0.7,0.3S21,16.7,21,17s0.1,0.5,0.3,0.7c0.2,0.2,0.4,0.3,0.7,0.3h1v2.2C11.5,21.6,2.5,31.2,2,43H1
				c-0.3,0-0.5,0.1-0.7,0.3C0.1,43.5,0,43.7,0,44v2c0,0.8,0.3,1.6,0.9,2.1C1.4,48.7,2.2,49,3,49h27.8c0.4,0.4,0.9,0.7,1.4,0.9
				C32,50.3,32,50.8,32,51.3c0.1,0.5,0.2,1,0.5,1.4c0.3,0.4,0.6,0.7,1.1,1C34,53.9,34.5,54,35,54h17c0,0.3,0.1,0.5,0.3,0.7
				c0.2,0.2,0.4,0.3,0.7,0.3h6c0.3,0,0.5-0.1,0.7-0.3c0.2-0.2,0.3-0.4,0.3-0.7V40c0-0.3-0.1-0.5-0.3-0.7S59.3,39,59,39z M25,18h2v2
				c-0.3,0-0.7,0-1,0c-0.3,0-0.7,0-1,0V18z M26,22c5.4,0,10.6,2,14.6,5.6c0,1.7,0.6,3.4,1.1,4.8c0.1,0.3,0.2,0.7,0.3,1
				c0.5,1.4,0.4,2.3,0.3,2.7H33c-0.6,0-1.1,0.2-1.6,0.5c-0.5,0.3-0.9,0.8-1.1,1.3s-0.3,1.1-0.2,1.7c0.1,0.6,0.3,1.1,0.7,1.5
				c-0.5,0.5-0.8,1.3-0.8,2H4C4.5,31.3,14.2,22,26,22z M32,39c0-0.3,0.1-0.5,0.3-0.7c0.2-0.2,0.4-0.3,0.7-0.3h8
				c0.3,0,0.5,0.1,0.7,0.3S42,38.7,42,39s-0.1,0.5-0.3,0.7C41.5,39.9,41.3,40,41,40h-8c-0.3,0-0.5-0.1-0.7-0.3
				C32.1,39.5,32,39.3,32,39z M32,43c0-0.3,0.1-0.5,0.3-0.7c0.2-0.2,0.4-0.3,0.7-0.3h8c0.3,0,0.5,0.1,0.7,0.3S42,42.7,42,43
				s-0.1,0.5-0.3,0.7C41.5,43.9,41.3,44,41,44h-8c-0.3,0-0.5-0.1-0.7-0.3C32.1,43.5,32,43.3,32,43z M3,47c-0.3,0-0.5-0.1-0.7-0.3
				S2,46.3,2,46v-1h28.8c-0.5,0.5-0.8,1.3-0.8,2H3z M33,46h8c0.3,0,0.5,0.1,0.7,0.3S42,46.7,42,47s-0.1,0.5-0.3,0.7
				C41.5,47.9,41.3,48,41,48h-8c-0.3,0-0.5-0.1-0.7-0.3C32.1,47.5,32,47.3,32,47s0.1-0.5,0.3-0.7S32.7,46,33,46z M35,52
				c-0.3,0-0.5-0.1-0.7-0.3C34.1,51.5,34,51.3,34,51s0.1-0.5,0.3-0.7S34.7,50,35,50h6c0.3,0,0.5,0.1,0.7,0.3S42,50.7,42,51
				s-0.1,0.5-0.3,0.7C41.5,51.9,41.3,52,41,52H35z M43.8,52c0.2-0.5,0.2-1.1,0.1-1.6c-0.1-0.5-0.3-1-0.7-1.4c0.5-0.5,0.8-1.3,0.8-2
				s-0.3-1.5-0.8-2c0.1-0.2,0.3-0.3,0.4-0.5c1.2,0.6,3.3,1.5,5.4,1.5c0.3,0,0.5-0.1,0.7-0.3c0.2-0.2,0.3-0.4,0.3-0.7
				s-0.1-0.5-0.3-0.7S49.3,44,49,44c-2.1,0-4.2-1.1-5.1-1.6c-0.1-0.5-0.4-1-0.7-1.4c0.4-0.4,0.7-1,0.7-1.6c0.1-0.6,0-1.2-0.3-1.7
				c0.2-0.2,1.4-1.6,0.2-5c-0.1-0.3-0.2-0.7-0.4-1c-1-2.8-1.6-4.9,0-6.2l4.5,9.9l2,4.6c0.4,0.9,1.1,1.7,2,2.3V52H43.8z M58,53h-4V41
				h4V53z"/>
			<path class="st7" d="M32.5,5.7c-0.1-0.2-0.2-0.3-0.3-0.5C32,5.1,31.8,5,31.6,5l-3.3-0.5l-1.5-2.9c-0.1-0.2-0.2-0.3-0.4-0.4
				C26.4,1.1,26.2,1,26,1s-0.4,0.1-0.5,0.1c-0.2,0.1-0.3,0.2-0.4,0.4l-1.5,2.9L20.4,5c-0.2,0-0.4,0.1-0.5,0.2
				c-0.1,0.1-0.2,0.3-0.3,0.5c-0.1,0.2-0.1,0.4,0,0.5c0,0.2,0.1,0.3,0.3,0.5L22.2,9l-0.6,3.2c0,0.2,0,0.4,0.1,0.5
				c0.1,0.2,0.2,0.3,0.3,0.4c0.2,0.1,0.3,0.2,0.5,0.2c0.2,0,0.4,0,0.5-0.1l2.9-1.5l2.9,1.5c0.2,0.1,0.4,0.1,0.5,0.1s0.4-0.1,0.5-0.2
				c0.2-0.1,0.3-0.3,0.3-0.4c0.1-0.2,0.1-0.4,0.1-0.5L29.8,9l2.4-2.3c0.1-0.1,0.2-0.3,0.3-0.5C32.5,6,32.5,5.8,32.5,5.7z M28.1,7.9
				c-0.1,0.1-0.2,0.3-0.3,0.4c-0.1,0.2-0.1,0.3,0,0.5l0.3,1.8l-1.6-0.8c-0.1-0.1-0.3-0.1-0.5-0.1c-0.2,0-0.3,0-0.5,0.1l-1.6,0.8
				l0.3-1.8c0-0.2,0-0.3,0-0.5c-0.1-0.2-0.1-0.3-0.3-0.4l-1.3-1.2l1.8-0.3c0.2,0,0.3-0.1,0.4-0.2C25,6.1,25.1,6,25.2,5.9L26,4.2
				l0.8,1.6C26.9,6,27,6.1,27.1,6.2c0.1,0.1,0.3,0.2,0.4,0.2l1.8,0.3L28.1,7.9z"/>
			<path class="st8" d="M46,9.7c-0.1-0.2-0.2-0.3-0.3-0.5C45.5,9.1,45.3,9,45.1,9l-3.3-0.5l-1.5-2.9c-0.1-0.2-0.2-0.3-0.4-0.4
				C39.9,5.1,39.7,5,39.5,5S39.1,5.1,39,5.1c-0.2,0.1-0.3,0.2-0.4,0.4l-1.5,2.9L33.9,9c-0.2,0-0.4,0.1-0.5,0.2
				c-0.1,0.1-0.2,0.3-0.3,0.5C33,9.8,33,10,33,10.2c0,0.2,0.1,0.3,0.3,0.5l2.4,2.3l-0.6,3.2c0,0.2,0,0.4,0.1,0.5s0.2,0.3,0.3,0.4
				c0.2,0.1,0.3,0.2,0.5,0.2c0.2,0,0.4,0,0.5-0.1l2.9-1.5l2.9,1.5c0.2,0.1,0.4,0.1,0.5,0.1c0.2,0,0.4-0.1,0.5-0.2
				c0.2-0.1,0.3-0.3,0.3-0.4s0.1-0.4,0.1-0.5L43.3,13l2.4-2.3c0.1-0.1,0.2-0.3,0.3-0.5C46,10,46,9.8,46,9.7z M41.6,11.9
				c-0.1,0.1-0.2,0.3-0.3,0.4c-0.1,0.2-0.1,0.3,0,0.5l0.3,1.8L40,13.7c-0.1-0.1-0.3-0.1-0.5-0.1c-0.2,0-0.3,0-0.5,0.1l-1.6,0.8
				l0.3-1.8c0-0.2,0-0.3,0-0.5c-0.1-0.2-0.1-0.3-0.3-0.4l-1.3-1.2l1.8-0.3c0.2,0,0.3-0.1,0.4-0.2s0.2-0.2,0.3-0.4l0.8-1.6l0.8,1.6
				c0.1,0.1,0.2,0.3,0.3,0.4s0.3,0.2,0.4,0.2l1.8,0.3L41.6,11.9z"/>
			<path class="st8" d="M19,10.3c-0.1-0.2-0.2-0.3-0.3-0.5c-0.1-0.1-0.3-0.2-0.5-0.2l-3.3-0.5l-1.5-2.9C13.3,6,13.2,5.9,13,5.8
				c-0.2-0.1-0.3-0.1-0.5-0.1S12.1,5.7,12,5.8c-0.2,0.1-0.3,0.2-0.4,0.4l-1.5,2.9L6.9,9.6c-0.2,0-0.4,0.1-0.5,0.2
				C6.2,9.9,6.1,10.1,6,10.3C6,10.5,6,10.6,6,10.8c0,0.2,0.1,0.3,0.3,0.5l2.4,2.3l-0.6,3.2c0,0.2,0,0.4,0.1,0.5s0.2,0.3,0.3,0.4
				C8.7,17.9,8.8,18,9,18c0.2,0,0.4,0,0.5-0.1l2.9-1.5l2.9,1.5C15.6,18,15.8,18,16,18c0.2,0,0.4-0.1,0.5-0.2
				c0.2-0.1,0.3-0.3,0.3-0.4s0.1-0.4,0.1-0.5l-0.6-3.2l2.4-2.3c0.1-0.1,0.2-0.3,0.3-0.5C19,10.6,19,10.5,19,10.3z M14.6,12.5
				c-0.1,0.1-0.2,0.3-0.3,0.4c-0.1,0.2-0.1,0.3,0,0.5l0.3,1.8L13,14.3c-0.1-0.1-0.3-0.1-0.5-0.1s-0.3,0-0.5,0.1l-1.6,0.8l0.3-1.8
				c0-0.2,0-0.3,0-0.5c-0.1-0.2-0.1-0.3-0.3-0.4l-1.3-1.2l1.8-0.3c0.2,0,0.3-0.1,0.4-0.2c0.1-0.1,0.2-0.2,0.3-0.4l0.8-1.6l0.8,1.6
				c0.1,0.1,0.2,0.3,0.3,0.4s0.3,0.2,0.4,0.2l1.8,0.3L14.6,12.5z"/>
			<path class="st8" d="M59,39h-6c-0.2,0-0.4,0.1-0.5,0.2s-0.3,0.3-0.4,0.4c-0.1-0.1-0.2-0.3-0.2-0.4l-2-4.6c0,0,0,0,0,0l-5-11
				c-0.1-0.1-0.1-0.2-0.2-0.3c-0.1-0.1-0.2-0.2-0.3-0.2c-0.1,0-0.3-0.1-0.4-0.1c-0.1,0-0.3,0-0.4,0.1c-1.2,0.6-2,1.4-2.4,2.3
				c-3.5-2.8-7.7-4.6-12.1-5.2V18h1c0.3,0,0.5-0.1,0.7-0.3c0.2-0.2,0.3-0.4,0.3-0.7s-0.1-0.5-0.3-0.7S30.3,16,30,16h-8
				c-0.3,0-0.5,0.1-0.7,0.3S21,16.7,21,17s0.1,0.5,0.3,0.7c0.2,0.2,0.4,0.3,0.7,0.3h1v2.2C11.5,21.6,2.5,31.2,2,43H1
				c-0.3,0-0.5,0.1-0.7,0.3C0.1,43.5,0,43.7,0,44v2c0,0.8,0.3,1.6,0.9,2.1C1.4,48.7,2.2,49,3,49h27.8c0.4,0.4,0.9,0.7,1.4,0.9
				C32,50.3,32,50.8,32,51.3c0.1,0.5,0.2,1,0.5,1.4c0.3,0.4,0.6,0.7,1.1,1C34,53.9,34.5,54,35,54h17c0,0.3,0.1,0.5,0.3,0.7
				c0.2,0.2,0.4,0.3,0.7,0.3h6c0.3,0,0.5-0.1,0.7-0.3c0.2-0.2,0.3-0.4,0.3-0.7V40c0-0.3-0.1-0.5-0.3-0.7S59.3,39,59,39z M25,18h2v2
				c-0.3,0-0.7,0-1,0c-0.3,0-0.7,0-1,0V18z M26,22c5.4,0,10.6,2,14.6,5.6c0,1.7,0.6,3.4,1.1,4.8c0.1,0.3,0.2,0.7,0.3,1
				c0.5,1.4,0.4,2.3,0.3,2.7H33c-0.6,0-1.1,0.2-1.6,0.5c-0.5,0.3-0.9,0.8-1.1,1.3s-0.3,1.1-0.2,1.7c0.1,0.6,0.3,1.1,0.7,1.5
				c-0.5,0.5-0.8,1.3-0.8,2H4C4.5,31.3,14.2,22,26,22z M32,39c0-0.3,0.1-0.5,0.3-0.7c0.2-0.2,0.4-0.3,0.7-0.3h8
				c0.3,0,0.5,0.1,0.7,0.3S42,38.7,42,39s-0.1,0.5-0.3,0.7C41.5,39.9,41.3,40,41,40h-8c-0.3,0-0.5-0.1-0.7-0.3
				C32.1,39.5,32,39.3,32,39z M32,43c0-0.3,0.1-0.5,0.3-0.7c0.2-0.2,0.4-0.3,0.7-0.3h8c0.3,0,0.5,0.1,0.7,0.3S42,42.7,42,43
				s-0.1,0.5-0.3,0.7C41.5,43.9,41.3,44,41,44h-8c-0.3,0-0.5-0.1-0.7-0.3C32.1,43.5,32,43.3,32,43z M3,47c-0.3,0-0.5-0.1-0.7-0.3
				S2,46.3,2,46v-1h28.8c-0.5,0.5-0.8,1.3-0.8,2H3z M33,46h8c0.3,0,0.5,0.1,0.7,0.3S42,46.7,42,47s-0.1,0.5-0.3,0.7
				C41.5,47.9,41.3,48,41,48h-8c-0.3,0-0.5-0.1-0.7-0.3C32.1,47.5,32,47.3,32,47s0.1-0.5,0.3-0.7S32.7,46,33,46z M35,52
				c-0.3,0-0.5-0.1-0.7-0.3C34.1,51.5,34,51.3,34,51s0.1-0.5,0.3-0.7S34.7,50,35,50h6c0.3,0,0.5,0.1,0.7,0.3S42,50.7,42,51
				s-0.1,0.5-0.3,0.7C41.5,51.9,41.3,52,41,52H35z M43.8,52c0.2-0.5,0.2-1.1,0.1-1.6c-0.1-0.5-0.3-1-0.7-1.4c0.5-0.5,0.8-1.3,0.8-2
				s-0.3-1.5-0.8-2c0.1-0.2,0.3-0.3,0.4-0.5c1.2,0.6,3.3,1.5,5.4,1.5c0.3,0,0.5-0.1,0.7-0.3c0.2-0.2,0.3-0.4,0.3-0.7
				s-0.1-0.5-0.3-0.7S49.3,44,49,44c-2.1,0-4.2-1.1-5.1-1.6c-0.1-0.5-0.4-1-0.7-1.4c0.4-0.4,0.7-1,0.7-1.6c0.1-0.6,0-1.2-0.3-1.7
				c0.2-0.2,1.4-1.6,0.2-5c-0.1-0.3-0.2-0.7-0.4-1c-1-2.8-1.6-4.9,0-6.2l4.5,9.9l2,4.6c0.4,0.9,1.1,1.7,2,2.3V52H43.8z M58,53h-4V41
				h4V53z"/>
		</g>
	</g>
</g>
</svg>
