<?xml version="1.0" encoding="utf-8"?>
<!-- Generator: Adobe Illustrator 21.1.0, SVG Export Plug-In . SVG Version: 6.00 Build 0)  -->
<svg version="1.1" xmlns="http://www.w3.org/2000/svg" xmlns:xlink="http://www.w3.org/1999/xlink" x="0px" y="0px"
	 viewBox="0 0 60 60" style="enable-background:new 0 0 60 60;" xml:space="preserve">
<style type="text/css">
	.st0{fill:#F37321;}
	.st1{fill:#FFFFFF;}
</style>
<g id="Слой_1">
	<path class="st0" d="M31,24c-0.3,0-0.5,0.1-0.7,0.3L25,29.6l-3.3-3.2c-0.9-0.9-2.4,0.5-1.4,1.4l4,4c0.4,0.4,1,0.4,1.4,0l6-6
		C32.4,25.1,31.9,24,31,24L31,24z M1,32h6c0.6,0,1,0.4,1,1s-0.4,1-1,1H1c-0.6,0-1-0.4-1-1S0.4,32,1,32z M1,24h6c0.6,0,1,0.4,1,1
		s-0.4,1-1,1H1c-0.6,0-1-0.4-1-1S0.4,24,1,24z M1,16h6c0.6,0,1,0.4,1,1s-0.4,1-1,1H1c-0.6,0-1-0.4-1-1S0.4,16,1,16z M49,38
		c-2.8,0-5,2.3-5,5s2.3,5,5,5s5-2.3,5-5S51.8,38,49,38z M49,40c1.7,0,3,1.3,3,3s-1.3,3-3,3s-3-1.3-3-3S47.3,40,49,40z M23,38
		c-2.8,0-5,2.3-5,5s2.3,5,5,5s5-2.3,5-5S25.8,38,23,38z M23,40c1.7,0,3,1.3,3,3s-1.3,3-3,3s-3-1.3-3-3S21.3,40,23,40z M13,12
		c-1.6,0-3,1.4-3,3v22c0,1.6,1.4,3,3,3h4c1.4,0,1.4-2,0-2h-4c-0.6,0-1-0.4-1-1V15c0-0.6,0.4-1,1-1h26c0.6,0,1,0.4,1,1v23H29
		c-1.3,0-1.3,2,0,2h14c1.3,0,1.3-2,0-2h-1V20h8.5L58,31.8V37c0,0.6-0.4,1-1,1h-2c-1.3,0-1.3,2,0,2h2c1.6,0,3-1.4,3-3v-5.5
		c0-0.2-0.1-0.4-0.2-0.5l-8-12.5C51.7,18.2,51.3,18,51,18h-9v-3c0-1.6-1.4-3-3-3H13z"/>
</g>
<g id="Слой_3">
	<path class="st1" d="M31,24c-0.3,0-0.5,0.1-0.7,0.3L25,29.6l-3.3-3.2c-0.9-0.9-2.4,0.5-1.4,1.4l4,4c0.4,0.4,1,0.4,1.4,0l6-6
		C32.4,25.1,31.9,24,31,24L31,24z M1,32h6c0.6,0,1,0.4,1,1s-0.4,1-1,1H1c-0.6,0-1-0.4-1-1S0.4,32,1,32z M1,24h6c0.6,0,1,0.4,1,1
		s-0.4,1-1,1H1c-0.6,0-1-0.4-1-1S0.4,24,1,24z M1,16h6c0.6,0,1,0.4,1,1s-0.4,1-1,1H1c-0.6,0-1-0.4-1-1S0.4,16,1,16z M49,38
		c-2.8,0-5,2.3-5,5s2.3,5,5,5s5-2.3,5-5S51.8,38,49,38z M49,40c1.7,0,3,1.3,3,3s-1.3,3-3,3s-3-1.3-3-3S47.3,40,49,40z M23,38
		c-2.8,0-5,2.3-5,5s2.3,5,5,5s5-2.3,5-5S25.8,38,23,38z M23,40c1.7,0,3,1.3,3,3s-1.3,3-3,3s-3-1.3-3-3S21.3,40,23,40z M13,12
		c-1.6,0-3,1.4-3,3v22c0,1.6,1.4,3,3,3h4c1.4,0,1.4-2,0-2h-4c-0.6,0-1-0.4-1-1V15c0-0.6,0.4-1,1-1h26c0.6,0,1,0.4,1,1v23H29
		c-1.3,0-1.3,2,0,2h14c1.3,0,1.3-2,0-2h-1V20h8.5L58,31.8V37c0,0.6-0.4,1-1,1h-2c-1.3,0-1.3,2,0,2h2c1.6,0,3-1.4,3-3v-5.5
		c0-0.2-0.1-0.4-0.2-0.5l-8-12.5C51.7,18.2,51.3,18,51,18h-9v-3c0-1.6-1.4-3-3-3H13z"/>
</g>
</svg>
